M48
; DRILL file {KiCad (5.1.10)-1} date 10/04/21 19:32:43
; FORMAT={-:-/ absolute / inch / decimal}
; #@! TF.CreationDate,2021-10-04T19:32:43-04:00
; #@! TF.GenerationSoftware,Kicad,Pcbnew,(5.1.10)-1
; #@! TF.FileFunction,Plated,1,2,PTH
FMAT,2
INCH
T1C0.0157
T2C0.0236
%
G90
G05
T1
X5.3329Y-2.4553
X5.3329Y-2.5085
X5.3663Y-2.4553
X5.3663Y-2.5085
X5.3998Y-2.4553
X5.3998Y-2.5085
X5.4236Y-2.5764
X5.4333Y-2.4553
X5.4333Y-2.5085
X5.4667Y-2.4553
X5.4667Y-2.5085
X5.5002Y-2.4553
X5.5002Y-2.5085
X5.5337Y-2.4553
X5.5337Y-2.5085
X5.5671Y-2.4553
X5.5671Y-2.5085
X5.975Y-3.04
X5.975Y-3.64
X5.975Y-3.79
X5.975Y-4.38
X5.985Y-4.55
X5.985Y-5.12
X6.0Y-2.475
X6.0Y-2.6
X6.475Y-2.325
X6.6122Y-2.8772
X6.615Y-3.09
X6.6346Y-3.9804
X6.6468Y-3.16
X6.65Y-2.5
X6.655Y-3.22
X6.725Y-3.79
X6.725Y-4.38
X6.725Y-4.55
X6.725Y-5.14
X6.735Y-3.04
X6.735Y-3.63
T2
G00X5.2797Y-2.3526
M15
G01X5.2797Y-2.3211
M16
G05
G00X5.2797Y-2.4994
M15
G01X5.2797Y-2.4404
M16
G05
G00X5.6203Y-2.3526
M15
G01X5.6203Y-2.3211
M16
G05
G00X5.6203Y-2.4994
M15
G01X5.6203Y-2.4404
M16
G05
T0
M30
