%TF.GenerationSoftware,KiCad,Pcbnew,(5.1.10)-1*%
%TF.CreationDate,2021-10-04T19:32:16-04:00*%
%TF.ProjectId,macropad,6d616372-6f70-4616-942e-6b696361645f,rev?*%
%TF.SameCoordinates,Original*%
%TF.FileFunction,Legend,Top*%
%TF.FilePolarity,Positive*%
%FSLAX46Y46*%
G04 Gerber Fmt 4.6, Leading zero omitted, Abs format (unit mm)*
G04 Created by KiCad (PCBNEW (5.1.10)-1) date 2021-10-04 19:32:16*
%MOMM*%
%LPD*%
G01*
G04 APERTURE LIST*
%ADD10C,0.150000*%
%ADD11C,0.200000*%
G04 APERTURE END LIST*
D10*
%TO.C,SW12*%
X147652500Y-127937500D02*
X147652500Y-128937500D01*
X146652500Y-141937500D02*
X147652500Y-141937500D01*
X147652500Y-127937500D02*
X146652500Y-127937500D01*
X147652500Y-140937500D02*
X147652500Y-141937500D01*
X133652500Y-141937500D02*
X133652500Y-140937500D01*
X134652500Y-127937500D02*
X133652500Y-127937500D01*
X133652500Y-141937500D02*
X134652500Y-141937500D01*
X133652500Y-128937500D02*
X133652500Y-127937500D01*
%TO.C,SW11*%
X166702500Y-127937500D02*
X166702500Y-128937500D01*
X165702500Y-141937500D02*
X166702500Y-141937500D01*
X166702500Y-127937500D02*
X165702500Y-127937500D01*
X166702500Y-140937500D02*
X166702500Y-141937500D01*
X152702500Y-141937500D02*
X152702500Y-140937500D01*
X153702500Y-127937500D02*
X152702500Y-127937500D01*
X152702500Y-141937500D02*
X153702500Y-141937500D01*
X152702500Y-128937500D02*
X152702500Y-127937500D01*
%TO.C,SW10*%
X185752500Y-127937500D02*
X185752500Y-128937500D01*
X184752500Y-141937500D02*
X185752500Y-141937500D01*
X185752500Y-127937500D02*
X184752500Y-127937500D01*
X185752500Y-140937500D02*
X185752500Y-141937500D01*
X171752500Y-141937500D02*
X171752500Y-140937500D01*
X172752500Y-127937500D02*
X171752500Y-127937500D01*
X171752500Y-141937500D02*
X172752500Y-141937500D01*
X171752500Y-128937500D02*
X171752500Y-127937500D01*
%TO.C,SW9*%
X147652500Y-108887500D02*
X147652500Y-109887500D01*
X146652500Y-122887500D02*
X147652500Y-122887500D01*
X147652500Y-108887500D02*
X146652500Y-108887500D01*
X147652500Y-121887500D02*
X147652500Y-122887500D01*
X133652500Y-122887500D02*
X133652500Y-121887500D01*
X134652500Y-108887500D02*
X133652500Y-108887500D01*
X133652500Y-122887500D02*
X134652500Y-122887500D01*
X133652500Y-109887500D02*
X133652500Y-108887500D01*
%TO.C,SW8*%
X166702500Y-108887500D02*
X166702500Y-109887500D01*
X165702500Y-122887500D02*
X166702500Y-122887500D01*
X166702500Y-108887500D02*
X165702500Y-108887500D01*
X166702500Y-121887500D02*
X166702500Y-122887500D01*
X152702500Y-122887500D02*
X152702500Y-121887500D01*
X153702500Y-108887500D02*
X152702500Y-108887500D01*
X152702500Y-122887500D02*
X153702500Y-122887500D01*
X152702500Y-109887500D02*
X152702500Y-108887500D01*
%TO.C,SW7*%
X185752500Y-108887500D02*
X185752500Y-109887500D01*
X184752500Y-122887500D02*
X185752500Y-122887500D01*
X185752500Y-108887500D02*
X184752500Y-108887500D01*
X185752500Y-121887500D02*
X185752500Y-122887500D01*
X171752500Y-122887500D02*
X171752500Y-121887500D01*
X172752500Y-108887500D02*
X171752500Y-108887500D01*
X171752500Y-122887500D02*
X172752500Y-122887500D01*
X171752500Y-109887500D02*
X171752500Y-108887500D01*
%TO.C,SW6*%
X147652500Y-89837500D02*
X147652500Y-90837500D01*
X146652500Y-103837500D02*
X147652500Y-103837500D01*
X147652500Y-89837500D02*
X146652500Y-89837500D01*
X147652500Y-102837500D02*
X147652500Y-103837500D01*
X133652500Y-103837500D02*
X133652500Y-102837500D01*
X134652500Y-89837500D02*
X133652500Y-89837500D01*
X133652500Y-103837500D02*
X134652500Y-103837500D01*
X133652500Y-90837500D02*
X133652500Y-89837500D01*
%TO.C,SW5*%
X166702500Y-89837500D02*
X166702500Y-90837500D01*
X165702500Y-103837500D02*
X166702500Y-103837500D01*
X166702500Y-89837500D02*
X165702500Y-89837500D01*
X166702500Y-102837500D02*
X166702500Y-103837500D01*
X152702500Y-103837500D02*
X152702500Y-102837500D01*
X153702500Y-89837500D02*
X152702500Y-89837500D01*
X152702500Y-103837500D02*
X153702500Y-103837500D01*
X152702500Y-90837500D02*
X152702500Y-89837500D01*
%TO.C,SW4*%
X185752500Y-89837500D02*
X185752500Y-90837500D01*
X184752500Y-103837500D02*
X185752500Y-103837500D01*
X185752500Y-89837500D02*
X184752500Y-89837500D01*
X185752500Y-102837500D02*
X185752500Y-103837500D01*
X171752500Y-103837500D02*
X171752500Y-102837500D01*
X172752500Y-89837500D02*
X171752500Y-89837500D01*
X171752500Y-103837500D02*
X172752500Y-103837500D01*
X171752500Y-90837500D02*
X171752500Y-89837500D01*
%TO.C,SW3*%
X147652500Y-70787500D02*
X147652500Y-71787500D01*
X146652500Y-84787500D02*
X147652500Y-84787500D01*
X147652500Y-70787500D02*
X146652500Y-70787500D01*
X147652500Y-83787500D02*
X147652500Y-84787500D01*
X133652500Y-84787500D02*
X133652500Y-83787500D01*
X134652500Y-70787500D02*
X133652500Y-70787500D01*
X133652500Y-84787500D02*
X134652500Y-84787500D01*
X133652500Y-71787500D02*
X133652500Y-70787500D01*
%TO.C,SW2*%
X166702500Y-70787500D02*
X166702500Y-71787500D01*
X165702500Y-84787500D02*
X166702500Y-84787500D01*
X166702500Y-70787500D02*
X165702500Y-70787500D01*
X166702500Y-83787500D02*
X166702500Y-84787500D01*
X152702500Y-84787500D02*
X152702500Y-83787500D01*
X153702500Y-70787500D02*
X152702500Y-70787500D01*
X152702500Y-84787500D02*
X153702500Y-84787500D01*
X152702500Y-71787500D02*
X152702500Y-70787500D01*
%TO.C,SW1*%
X185752500Y-70787500D02*
X185752500Y-71787500D01*
X184752500Y-84787500D02*
X185752500Y-84787500D01*
X185752500Y-70787500D02*
X184752500Y-70787500D01*
X185752500Y-83787500D02*
X185752500Y-84787500D01*
X171752500Y-84787500D02*
X171752500Y-83787500D01*
X172752500Y-70787500D02*
X171752500Y-70787500D01*
X171752500Y-84787500D02*
X172752500Y-84787500D01*
X171752500Y-71787500D02*
X171752500Y-70787500D01*
D11*
%TO.C,J1*%
X133955000Y-57615000D02*
X133955000Y-57965000D01*
X142905000Y-57615000D02*
X133955000Y-57615000D01*
X142905000Y-57965000D02*
X142905000Y-57615000D01*
X142905000Y-64275000D02*
X133955000Y-64275000D01*
D10*
X139194041Y-65657713D02*
X139194041Y-66372106D01*
X139146415Y-66514985D01*
X139051163Y-66610237D01*
X138908284Y-66657863D01*
X138813032Y-66657863D01*
X140194191Y-66657863D02*
X139622677Y-66657863D01*
X139908434Y-66657863D02*
X139908434Y-65657713D01*
X139813182Y-65800592D01*
X139717929Y-65895844D01*
X139622677Y-65943470D01*
%TD*%
M02*
