M48
; DRILL file {KiCad (5.1.10)-1} date 10/04/21 19:32:43
; FORMAT={-:-/ absolute / inch / decimal}
; #@! TF.CreationDate,2021-10-04T19:32:43-04:00
; #@! TF.GenerationSoftware,Kicad,Pcbnew,(5.1.10)-1
; #@! TF.FileFunction,NonPlated,1,2,NPTH
FMAT,2
INCH
T1C0.0670
T2C0.1181
T3C0.1570
%
G90
G05
T1
X5.3375Y-3.0625
X5.3375Y-3.8125
X5.3375Y-4.5625
X5.3375Y-5.3125
X5.7375Y-3.0625
X5.7375Y-3.8125
X5.7375Y-4.5625
X5.7375Y-5.3125
X6.0875Y-3.0625
X6.0875Y-3.8125
X6.0875Y-4.5625
X6.0875Y-5.3125
X6.4875Y-3.0625
X6.4875Y-3.8125
X6.4875Y-4.5625
X6.4875Y-5.3125
X6.8375Y-3.0625
X6.8375Y-3.8125
X6.8375Y-4.5625
X6.8375Y-5.3125
X7.2375Y-3.0625
X7.2375Y-3.8125
X7.2375Y-4.5625
X7.2375Y-5.3125
T2
X5.3875Y-2.9625
X5.3875Y-3.7125
X5.3875Y-4.4625
X5.3875Y-5.2125
X5.6375Y-2.8625
X5.6375Y-3.6125
X5.6375Y-4.3625
X5.6375Y-5.1125
X6.1375Y-2.9625
X6.1375Y-3.7125
X6.1375Y-4.4625
X6.1375Y-5.2125
X6.3875Y-2.8625
X6.3875Y-3.6125
X6.3875Y-4.3625
X6.3875Y-5.1125
X6.8875Y-2.9625
X6.8875Y-3.7125
X6.8875Y-4.4625
X6.8875Y-5.2125
X7.1375Y-2.8625
X7.1375Y-3.6125
X7.1375Y-4.3625
X7.1375Y-5.1125
T3
X5.5375Y-3.0625
X5.5375Y-3.8125
X5.5375Y-4.5625
X5.5375Y-5.3125
X6.2875Y-3.0625
X6.2875Y-3.8125
X6.2875Y-4.5625
X6.2875Y-5.3125
X7.0375Y-3.0625
X7.0375Y-3.8125
X7.0375Y-4.5625
X7.0375Y-5.3125
T0
M30
