%TF.GenerationSoftware,KiCad,Pcbnew,(5.1.10)-1*%
%TF.CreationDate,2021-10-04T19:32:16-04:00*%
%TF.ProjectId,macropad,6d616372-6f70-4616-942e-6b696361645f,rev?*%
%TF.SameCoordinates,Original*%
%TF.FileFunction,Copper,L1,Top*%
%TF.FilePolarity,Positive*%
%FSLAX46Y46*%
G04 Gerber Fmt 4.6, Leading zero omitted, Abs format (unit mm)*
G04 Created by KiCad (PCBNEW (5.1.10)-1) date 2021-10-04 19:32:16*
%MOMM*%
%LPD*%
G01*
G04 APERTURE LIST*
%TA.AperFunction,ComponentPad*%
%ADD10C,0.650000*%
%TD*%
%TA.AperFunction,ComponentPad*%
%ADD11O,1.108000X2.216000*%
%TD*%
%TA.AperFunction,ViaPad*%
%ADD12C,0.800000*%
%TD*%
%TA.AperFunction,Conductor*%
%ADD13C,0.250000*%
%TD*%
G04 APERTURE END LIST*
D10*
%TO.P,J1,A1*%
%TO.N,GND*%
X141405000Y-63715000D03*
%TO.P,J1,A4*%
%TO.N,VCC*%
X140555000Y-63715000D03*
%TO.P,J1,A5*%
%TO.N,/CC1*%
X139705000Y-63715000D03*
%TO.P,J1,A6*%
%TO.N,/D+*%
X138855000Y-63715000D03*
%TO.P,J1,A7*%
%TO.N,/D-*%
X138005000Y-63715000D03*
%TO.P,J1,A8*%
%TO.N,Net-(J1-PadA8)*%
X137155000Y-63715000D03*
%TO.P,J1,A9*%
%TO.N,VCC*%
X136305000Y-63715000D03*
%TO.P,J1,A12*%
%TO.N,GND*%
X135455000Y-63715000D03*
%TO.P,J1,B1*%
X135455000Y-62365000D03*
%TO.P,J1,B4*%
%TO.N,VCC*%
X136305000Y-62365000D03*
%TO.P,J1,B5*%
%TO.N,/CC2*%
X137155000Y-62365000D03*
%TO.P,J1,B6*%
%TO.N,/D+*%
X138005000Y-62365000D03*
%TO.P,J1,B7*%
%TO.N,/D-*%
X138855000Y-62365000D03*
%TO.P,J1,B8*%
%TO.N,Net-(J1-PadB8)*%
X139705000Y-62365000D03*
%TO.P,J1,B9*%
%TO.N,VCC*%
X140555000Y-62365000D03*
%TO.P,J1,B12*%
%TO.N,GND*%
X141405000Y-62365000D03*
D11*
%TO.P,J1,P1*%
X142755000Y-62735000D03*
%TO.P,J1,P2*%
X134105000Y-62735000D03*
%TO.P,J1,P3*%
X134105000Y-59355000D03*
%TO.P,J1,P4*%
X142755000Y-59355000D03*
%TD*%
D12*
%TO.N,/row1*%
X169037000Y-81788000D03*
X168829001Y-80264000D03*
%TO.N,/row2*%
X168519999Y-101101001D03*
X168021000Y-78486000D03*
%TO.N,/D+*%
X137758947Y-65441053D03*
%TO.N,/col0*%
X170815000Y-130556000D03*
X170815000Y-115570000D03*
X170815000Y-111252000D03*
X170815000Y-96266000D03*
X171069000Y-92202000D03*
X171069000Y-77216000D03*
%TO.N,/col1*%
X152019000Y-130048000D03*
X152019000Y-115570000D03*
X151765000Y-111252000D03*
X151765000Y-96266000D03*
X151765000Y-92456000D03*
X151765000Y-77216000D03*
X167950436Y-73081436D03*
%TO.N,GND*%
X168910000Y-63500000D03*
X164465000Y-59055000D03*
X152400000Y-66040000D03*
X152400000Y-62865000D03*
%TD*%
D13*
%TO.N,VCC*%
X136305000Y-62252998D02*
X136305000Y-62365000D01*
X140555000Y-62365000D02*
X140555000Y-61905381D01*
X140555000Y-61905381D02*
X140364618Y-61714999D01*
X136842999Y-61714999D02*
X136305000Y-62252998D01*
X140364618Y-61714999D02*
X136842999Y-61714999D01*
%TO.N,/row1*%
X169037000Y-80471999D02*
X168829001Y-80264000D01*
X169037000Y-81788000D02*
X169037000Y-80471999D01*
%TO.N,/row2*%
X168021000Y-100602002D02*
X168021000Y-78486000D01*
X168519999Y-101101001D02*
X168021000Y-100602002D01*
%TO.N,/D+*%
X138855000Y-64345000D02*
X138855000Y-63715000D01*
X137758947Y-65441053D02*
X138855000Y-64345000D01*
X138005000Y-62477002D02*
X138005000Y-62365000D01*
X138855000Y-63327002D02*
X138005000Y-62477002D01*
X138855000Y-63715000D02*
X138855000Y-63327002D01*
%TO.N,/col0*%
X170815000Y-130556000D02*
X170815000Y-115570000D01*
X170815000Y-111252000D02*
X170815000Y-96266000D01*
X171069000Y-92202000D02*
X171069000Y-77216000D01*
%TO.N,/col1*%
X152019000Y-130048000D02*
X152019000Y-115570000D01*
X151765000Y-111252000D02*
X151765000Y-96266000D01*
X151765000Y-92456000D02*
X151765000Y-77216000D01*
X165563273Y-75468599D02*
X167950436Y-73081436D01*
X158681735Y-75468599D02*
X165563273Y-75468599D01*
X155186933Y-78963401D02*
X158681735Y-75468599D01*
X153512401Y-78963401D02*
X155186933Y-78963401D01*
X151765000Y-77216000D02*
X153512401Y-78963401D01*
%TO.N,GND*%
X168910000Y-63500000D02*
X164465000Y-59055000D01*
X152400000Y-66040000D02*
X152400000Y-62865000D01*
%TD*%
M02*
