%TF.GenerationSoftware,KiCad,Pcbnew,(5.1.10)-1*%
%TF.CreationDate,2021-10-04T19:32:16-04:00*%
%TF.ProjectId,macropad,6d616372-6f70-4616-942e-6b696361645f,rev?*%
%TF.SameCoordinates,Original*%
%TF.FileFunction,Copper,L2,Bot*%
%TF.FilePolarity,Positive*%
%FSLAX46Y46*%
G04 Gerber Fmt 4.6, Leading zero omitted, Abs format (unit mm)*
G04 Created by KiCad (PCBNEW (5.1.10)-1) date 2021-10-04 19:32:16*
%MOMM*%
%LPD*%
G01*
G04 APERTURE LIST*
%TA.AperFunction,SMDPad,CuDef*%
%ADD10R,1.700000X1.000000*%
%TD*%
%TA.AperFunction,SMDPad,CuDef*%
%ADD11C,0.100000*%
%TD*%
%TA.AperFunction,SMDPad,CuDef*%
%ADD12R,2.550000X2.500000*%
%TD*%
%TA.AperFunction,ComponentPad*%
%ADD13C,0.650000*%
%TD*%
%TA.AperFunction,ComponentPad*%
%ADD14O,1.108000X2.216000*%
%TD*%
%TA.AperFunction,SMDPad,CuDef*%
%ADD15R,1.200000X1.400000*%
%TD*%
%TA.AperFunction,SMDPad,CuDef*%
%ADD16R,1.100000X1.100000*%
%TD*%
%TA.AperFunction,ViaPad*%
%ADD17C,0.800000*%
%TD*%
%TA.AperFunction,Conductor*%
%ADD18C,0.250000*%
%TD*%
%TA.AperFunction,Conductor*%
%ADD19C,0.200000*%
%TD*%
%TA.AperFunction,Conductor*%
%ADD20C,0.254000*%
%TD*%
%TA.AperFunction,Conductor*%
%ADD21C,0.100000*%
%TD*%
G04 APERTURE END LIST*
D10*
%TO.P,SW13,2*%
%TO.N,GND*%
X184760000Y-62235000D03*
X178460000Y-62235000D03*
%TO.P,SW13,1*%
%TO.N,Net-(R5-Pad1)*%
X184760000Y-66035000D03*
X178460000Y-66035000D03*
%TD*%
%TA.AperFunction,SMDPad,CuDef*%
D11*
%TO.P,U1,16*%
%TO.N,Net-(U1-Pad16)*%
G36*
X173840674Y-64115926D02*
G01*
X174901334Y-63055266D01*
X175219532Y-63373464D01*
X174158872Y-64434124D01*
X173840674Y-64115926D01*
G37*
%TD.AperFunction*%
%TA.AperFunction,SMDPad,CuDef*%
%TO.P,U1,15*%
%TO.N,Net-(U1-Pad15)*%
G36*
X173274988Y-63550241D02*
G01*
X174335648Y-62489581D01*
X174653846Y-62807779D01*
X173593186Y-63868439D01*
X173274988Y-63550241D01*
G37*
%TD.AperFunction*%
%TA.AperFunction,SMDPad,CuDef*%
%TO.P,U1,14*%
%TO.N,Net-(U1-Pad14)*%
G36*
X172709303Y-62984555D02*
G01*
X173769963Y-61923895D01*
X174088161Y-62242093D01*
X173027501Y-63302753D01*
X172709303Y-62984555D01*
G37*
%TD.AperFunction*%
%TA.AperFunction,SMDPad,CuDef*%
%TO.P,U1,13*%
%TO.N,Net-(R6-Pad1)*%
G36*
X172143618Y-62418870D02*
G01*
X173204278Y-61358210D01*
X173522476Y-61676408D01*
X172461816Y-62737068D01*
X172143618Y-62418870D01*
G37*
%TD.AperFunction*%
%TA.AperFunction,SMDPad,CuDef*%
%TO.P,U1,12*%
%TO.N,Net-(U1-Pad12)*%
G36*
X171577932Y-61853184D02*
G01*
X172638592Y-60792524D01*
X172956790Y-61110722D01*
X171896130Y-62171382D01*
X171577932Y-61853184D01*
G37*
%TD.AperFunction*%
%TA.AperFunction,SMDPad,CuDef*%
%TO.P,U1,11*%
%TO.N,Net-(U1-Pad11)*%
G36*
X171012247Y-61287499D02*
G01*
X172072907Y-60226839D01*
X172391105Y-60545037D01*
X171330445Y-61605697D01*
X171012247Y-61287499D01*
G37*
%TD.AperFunction*%
%TA.AperFunction,SMDPad,CuDef*%
%TO.P,U1,10*%
%TO.N,Net-(U1-Pad10)*%
G36*
X170446561Y-60721814D02*
G01*
X171507221Y-59661154D01*
X171825419Y-59979352D01*
X170764759Y-61040012D01*
X170446561Y-60721814D01*
G37*
%TD.AperFunction*%
%TA.AperFunction,SMDPad,CuDef*%
%TO.P,U1,9*%
%TO.N,Net-(U1-Pad9)*%
G36*
X169880876Y-60156128D02*
G01*
X170941536Y-59095468D01*
X171259734Y-59413666D01*
X170199074Y-60474326D01*
X169880876Y-60156128D01*
G37*
%TD.AperFunction*%
%TA.AperFunction,SMDPad,CuDef*%
%TO.P,U1,25*%
%TO.N,Net-(U1-Pad25)*%
G36*
X167830266Y-70126334D02*
G01*
X168890926Y-69065674D01*
X169209124Y-69383872D01*
X168148464Y-70444532D01*
X167830266Y-70126334D01*
G37*
%TD.AperFunction*%
%TA.AperFunction,SMDPad,CuDef*%
%TO.P,U1,26*%
%TO.N,/col2*%
G36*
X167264581Y-69560648D02*
G01*
X168325241Y-68499988D01*
X168643439Y-68818186D01*
X167582779Y-69878846D01*
X167264581Y-69560648D01*
G37*
%TD.AperFunction*%
%TA.AperFunction,SMDPad,CuDef*%
%TO.P,U1,27*%
%TO.N,Net-(C1-Pad2)*%
G36*
X166698895Y-68994963D02*
G01*
X167759555Y-67934303D01*
X168077753Y-68252501D01*
X167017093Y-69313161D01*
X166698895Y-68994963D01*
G37*
%TD.AperFunction*%
%TA.AperFunction,SMDPad,CuDef*%
%TO.P,U1,28*%
%TO.N,GND*%
G36*
X166133210Y-68429278D02*
G01*
X167193870Y-67368618D01*
X167512068Y-67686816D01*
X166451408Y-68747476D01*
X166133210Y-68429278D01*
G37*
%TD.AperFunction*%
%TA.AperFunction,SMDPad,CuDef*%
%TO.P,U1,29*%
%TO.N,/D_N*%
G36*
X165567524Y-67863592D02*
G01*
X166628184Y-66802932D01*
X166946382Y-67121130D01*
X165885722Y-68181790D01*
X165567524Y-67863592D01*
G37*
%TD.AperFunction*%
%TA.AperFunction,SMDPad,CuDef*%
%TO.P,U1,30*%
%TO.N,/D_P*%
G36*
X165001839Y-67297907D02*
G01*
X166062499Y-66237247D01*
X166380697Y-66555445D01*
X165320037Y-67616105D01*
X165001839Y-67297907D01*
G37*
%TD.AperFunction*%
%TA.AperFunction,SMDPad,CuDef*%
%TO.P,U1,31*%
%TO.N,VCC*%
G36*
X164436154Y-66732221D02*
G01*
X165496814Y-65671561D01*
X165815012Y-65989759D01*
X164754352Y-67050419D01*
X164436154Y-66732221D01*
G37*
%TD.AperFunction*%
%TA.AperFunction,SMDPad,CuDef*%
%TO.P,U1,32*%
G36*
X163870468Y-66166536D02*
G01*
X164931128Y-65105876D01*
X165249326Y-65424074D01*
X164188666Y-66484734D01*
X163870468Y-66166536D01*
G37*
%TD.AperFunction*%
%TA.AperFunction,SMDPad,CuDef*%
%TO.P,U1,23*%
%TO.N,Net-(U1-Pad23)*%
G36*
X170446561Y-68818186D02*
G01*
X170764759Y-68499988D01*
X171825419Y-69560648D01*
X171507221Y-69878846D01*
X170446561Y-68818186D01*
G37*
%TD.AperFunction*%
%TA.AperFunction,SMDPad,CuDef*%
%TO.P,U1,22*%
%TO.N,Net-(U1-Pad22)*%
G36*
X171012247Y-68252501D02*
G01*
X171330445Y-67934303D01*
X172391105Y-68994963D01*
X172072907Y-69313161D01*
X171012247Y-68252501D01*
G37*
%TD.AperFunction*%
%TA.AperFunction,SMDPad,CuDef*%
%TO.P,U1,21*%
%TO.N,/col1*%
G36*
X171577932Y-67686816D02*
G01*
X171896130Y-67368618D01*
X172956790Y-68429278D01*
X172638592Y-68747476D01*
X171577932Y-67686816D01*
G37*
%TD.AperFunction*%
%TA.AperFunction,SMDPad,CuDef*%
%TO.P,U1,20*%
%TO.N,/row2*%
G36*
X172143618Y-67121130D02*
G01*
X172461816Y-66802932D01*
X173522476Y-67863592D01*
X173204278Y-68181790D01*
X172143618Y-67121130D01*
G37*
%TD.AperFunction*%
%TA.AperFunction,SMDPad,CuDef*%
%TO.P,U1,19*%
%TO.N,/row1*%
G36*
X172709303Y-66555445D02*
G01*
X173027501Y-66237247D01*
X174088161Y-67297907D01*
X173769963Y-67616105D01*
X172709303Y-66555445D01*
G37*
%TD.AperFunction*%
%TA.AperFunction,SMDPad,CuDef*%
%TO.P,U1,18*%
%TO.N,/row0*%
G36*
X173274988Y-65989759D02*
G01*
X173593186Y-65671561D01*
X174653846Y-66732221D01*
X174335648Y-67050419D01*
X173274988Y-65989759D01*
G37*
%TD.AperFunction*%
%TA.AperFunction,SMDPad,CuDef*%
%TO.P,U1,17*%
%TO.N,/col0*%
G36*
X173840674Y-65424074D02*
G01*
X174158872Y-65105876D01*
X175219532Y-66166536D01*
X174901334Y-66484734D01*
X173840674Y-65424074D01*
G37*
%TD.AperFunction*%
%TA.AperFunction,SMDPad,CuDef*%
%TO.P,U1,24*%
%TO.N,Net-(R5-Pad1)*%
G36*
X169880876Y-69383872D02*
G01*
X170199074Y-69065674D01*
X171259734Y-70126334D01*
X170941536Y-70444532D01*
X169880876Y-69383872D01*
G37*
%TD.AperFunction*%
%TA.AperFunction,SMDPad,CuDef*%
%TO.P,U1,1*%
%TO.N,Net-(U1-Pad1)*%
G36*
X163870468Y-63373464D02*
G01*
X164188666Y-63055266D01*
X165249326Y-64115926D01*
X164931128Y-64434124D01*
X163870468Y-63373464D01*
G37*
%TD.AperFunction*%
%TA.AperFunction,SMDPad,CuDef*%
%TO.P,U1,2*%
%TO.N,Net-(U1-Pad2)*%
G36*
X164436154Y-62807779D02*
G01*
X164754352Y-62489581D01*
X165815012Y-63550241D01*
X165496814Y-63868439D01*
X164436154Y-62807779D01*
G37*
%TD.AperFunction*%
%TA.AperFunction,SMDPad,CuDef*%
%TO.P,U1,3*%
%TO.N,GND*%
G36*
X165001839Y-62242093D02*
G01*
X165320037Y-61923895D01*
X166380697Y-62984555D01*
X166062499Y-63302753D01*
X165001839Y-62242093D01*
G37*
%TD.AperFunction*%
%TA.AperFunction,SMDPad,CuDef*%
%TO.P,U1,4*%
%TO.N,VCC*%
G36*
X165567524Y-61676408D02*
G01*
X165885722Y-61358210D01*
X166946382Y-62418870D01*
X166628184Y-62737068D01*
X165567524Y-61676408D01*
G37*
%TD.AperFunction*%
%TA.AperFunction,SMDPad,CuDef*%
%TO.P,U1,5*%
%TO.N,Net-(U1-Pad5)*%
G36*
X166133210Y-61110722D02*
G01*
X166451408Y-60792524D01*
X167512068Y-61853184D01*
X167193870Y-62171382D01*
X166133210Y-61110722D01*
G37*
%TD.AperFunction*%
%TA.AperFunction,SMDPad,CuDef*%
%TO.P,U1,6*%
%TO.N,Net-(U1-Pad6)*%
G36*
X166698895Y-60545037D02*
G01*
X167017093Y-60226839D01*
X168077753Y-61287499D01*
X167759555Y-61605697D01*
X166698895Y-60545037D01*
G37*
%TD.AperFunction*%
%TA.AperFunction,SMDPad,CuDef*%
%TO.P,U1,7*%
%TO.N,Net-(U1-Pad7)*%
G36*
X167264581Y-59979352D02*
G01*
X167582779Y-59661154D01*
X168643439Y-60721814D01*
X168325241Y-61040012D01*
X167264581Y-59979352D01*
G37*
%TD.AperFunction*%
%TA.AperFunction,SMDPad,CuDef*%
%TO.P,U1,8*%
%TO.N,Net-(U1-Pad8)*%
G36*
X167830266Y-59413666D02*
G01*
X168148464Y-59095468D01*
X169209124Y-60156128D01*
X168890926Y-60474326D01*
X167830266Y-59413666D01*
G37*
%TD.AperFunction*%
%TD*%
D12*
%TO.P,SW12,2*%
%TO.N,/col2*%
X133092500Y-132397500D03*
%TO.P,SW12,1*%
%TO.N,Net-(D12-Pad2)*%
X146942500Y-129857500D03*
%TD*%
%TO.P,SW11,2*%
%TO.N,/col1*%
X152142500Y-132397500D03*
%TO.P,SW11,1*%
%TO.N,Net-(D11-Pad2)*%
X165992500Y-129857500D03*
%TD*%
%TO.P,SW10,2*%
%TO.N,/col0*%
X171192500Y-132397500D03*
%TO.P,SW10,1*%
%TO.N,Net-(D10-Pad2)*%
X185042500Y-129857500D03*
%TD*%
%TO.P,SW9,2*%
%TO.N,/col2*%
X133092500Y-113347500D03*
%TO.P,SW9,1*%
%TO.N,Net-(D9-Pad2)*%
X146942500Y-110807500D03*
%TD*%
%TO.P,SW8,2*%
%TO.N,/col1*%
X152142500Y-113347500D03*
%TO.P,SW8,1*%
%TO.N,Net-(D8-Pad2)*%
X165992500Y-110807500D03*
%TD*%
%TO.P,SW7,2*%
%TO.N,/col0*%
X171192500Y-113347500D03*
%TO.P,SW7,1*%
%TO.N,Net-(D7-Pad2)*%
X185042500Y-110807500D03*
%TD*%
%TO.P,SW6,2*%
%TO.N,/col2*%
X133092500Y-94297500D03*
%TO.P,SW6,1*%
%TO.N,Net-(D6-Pad2)*%
X146942500Y-91757500D03*
%TD*%
%TO.P,SW5,2*%
%TO.N,/col1*%
X152142500Y-94297500D03*
%TO.P,SW5,1*%
%TO.N,Net-(D5-Pad2)*%
X165992500Y-91757500D03*
%TD*%
%TO.P,SW4,2*%
%TO.N,/col0*%
X171192500Y-94297500D03*
%TO.P,SW4,1*%
%TO.N,Net-(D4-Pad2)*%
X185042500Y-91757500D03*
%TD*%
%TO.P,SW3,2*%
%TO.N,/col2*%
X133092500Y-75247500D03*
%TO.P,SW3,1*%
%TO.N,Net-(D3-Pad2)*%
X146942500Y-72707500D03*
%TD*%
%TO.P,SW2,2*%
%TO.N,/col1*%
X152142500Y-75247500D03*
%TO.P,SW2,1*%
%TO.N,Net-(D2-Pad2)*%
X165992500Y-72707500D03*
%TD*%
%TO.P,SW1,2*%
%TO.N,/col0*%
X171192500Y-75247500D03*
%TO.P,SW1,1*%
%TO.N,Net-(D1-Pad2)*%
X185042500Y-72707500D03*
%TD*%
%TO.P,R6,2*%
%TO.N,GND*%
%TA.AperFunction,SMDPad,CuDef*%
G36*
G01*
X176320000Y-61197500D02*
X176320000Y-60722500D01*
G75*
G02*
X176557500Y-60485000I237500J0D01*
G01*
X177057500Y-60485000D01*
G75*
G02*
X177295000Y-60722500I0J-237500D01*
G01*
X177295000Y-61197500D01*
G75*
G02*
X177057500Y-61435000I-237500J0D01*
G01*
X176557500Y-61435000D01*
G75*
G02*
X176320000Y-61197500I0J237500D01*
G01*
G37*
%TD.AperFunction*%
%TO.P,R6,1*%
%TO.N,Net-(R6-Pad1)*%
%TA.AperFunction,SMDPad,CuDef*%
G36*
G01*
X174495000Y-61197500D02*
X174495000Y-60722500D01*
G75*
G02*
X174732500Y-60485000I237500J0D01*
G01*
X175232500Y-60485000D01*
G75*
G02*
X175470000Y-60722500I0J-237500D01*
G01*
X175470000Y-61197500D01*
G75*
G02*
X175232500Y-61435000I-237500J0D01*
G01*
X174732500Y-61435000D01*
G75*
G02*
X174495000Y-61197500I0J237500D01*
G01*
G37*
%TD.AperFunction*%
%TD*%
%TO.P,R5,2*%
%TO.N,VCC*%
%TA.AperFunction,SMDPad,CuDef*%
G36*
G01*
X167850000Y-58182500D02*
X167850000Y-58657500D01*
G75*
G02*
X167612500Y-58895000I-237500J0D01*
G01*
X167112500Y-58895000D01*
G75*
G02*
X166875000Y-58657500I0J237500D01*
G01*
X166875000Y-58182500D01*
G75*
G02*
X167112500Y-57945000I237500J0D01*
G01*
X167612500Y-57945000D01*
G75*
G02*
X167850000Y-58182500I0J-237500D01*
G01*
G37*
%TD.AperFunction*%
%TO.P,R5,1*%
%TO.N,Net-(R5-Pad1)*%
%TA.AperFunction,SMDPad,CuDef*%
G36*
G01*
X169675000Y-58182500D02*
X169675000Y-58657500D01*
G75*
G02*
X169437500Y-58895000I-237500J0D01*
G01*
X168937500Y-58895000D01*
G75*
G02*
X168700000Y-58657500I0J237500D01*
G01*
X168700000Y-58182500D01*
G75*
G02*
X168937500Y-57945000I237500J0D01*
G01*
X169437500Y-57945000D01*
G75*
G02*
X169675000Y-58182500I0J-237500D01*
G01*
G37*
%TD.AperFunction*%
%TD*%
%TO.P,R4,2*%
%TO.N,/D_N*%
%TA.AperFunction,SMDPad,CuDef*%
G36*
G01*
X160445000Y-69452500D02*
X160445000Y-68977500D01*
G75*
G02*
X160682500Y-68740000I237500J0D01*
G01*
X161182500Y-68740000D01*
G75*
G02*
X161420000Y-68977500I0J-237500D01*
G01*
X161420000Y-69452500D01*
G75*
G02*
X161182500Y-69690000I-237500J0D01*
G01*
X160682500Y-69690000D01*
G75*
G02*
X160445000Y-69452500I0J237500D01*
G01*
G37*
%TD.AperFunction*%
%TO.P,R4,1*%
%TO.N,/D+*%
%TA.AperFunction,SMDPad,CuDef*%
G36*
G01*
X158620000Y-69452500D02*
X158620000Y-68977500D01*
G75*
G02*
X158857500Y-68740000I237500J0D01*
G01*
X159357500Y-68740000D01*
G75*
G02*
X159595000Y-68977500I0J-237500D01*
G01*
X159595000Y-69452500D01*
G75*
G02*
X159357500Y-69690000I-237500J0D01*
G01*
X158857500Y-69690000D01*
G75*
G02*
X158620000Y-69452500I0J237500D01*
G01*
G37*
%TD.AperFunction*%
%TD*%
%TO.P,R3,2*%
%TO.N,/D_P*%
%TA.AperFunction,SMDPad,CuDef*%
G36*
G01*
X160445000Y-67547500D02*
X160445000Y-67072500D01*
G75*
G02*
X160682500Y-66835000I237500J0D01*
G01*
X161182500Y-66835000D01*
G75*
G02*
X161420000Y-67072500I0J-237500D01*
G01*
X161420000Y-67547500D01*
G75*
G02*
X161182500Y-67785000I-237500J0D01*
G01*
X160682500Y-67785000D01*
G75*
G02*
X160445000Y-67547500I0J237500D01*
G01*
G37*
%TD.AperFunction*%
%TO.P,R3,1*%
%TO.N,/D-*%
%TA.AperFunction,SMDPad,CuDef*%
G36*
G01*
X158620000Y-67547500D02*
X158620000Y-67072500D01*
G75*
G02*
X158857500Y-66835000I237500J0D01*
G01*
X159357500Y-66835000D01*
G75*
G02*
X159595000Y-67072500I0J-237500D01*
G01*
X159595000Y-67547500D01*
G75*
G02*
X159357500Y-67785000I-237500J0D01*
G01*
X158857500Y-67785000D01*
G75*
G02*
X158620000Y-67547500I0J237500D01*
G01*
G37*
%TD.AperFunction*%
%TD*%
%TO.P,R2,2*%
%TO.N,GND*%
%TA.AperFunction,SMDPad,CuDef*%
G36*
G01*
X131842500Y-63925000D02*
X132317500Y-63925000D01*
G75*
G02*
X132555000Y-64162500I0J-237500D01*
G01*
X132555000Y-64662500D01*
G75*
G02*
X132317500Y-64900000I-237500J0D01*
G01*
X131842500Y-64900000D01*
G75*
G02*
X131605000Y-64662500I0J237500D01*
G01*
X131605000Y-64162500D01*
G75*
G02*
X131842500Y-63925000I237500J0D01*
G01*
G37*
%TD.AperFunction*%
%TO.P,R2,1*%
%TO.N,/CC2*%
%TA.AperFunction,SMDPad,CuDef*%
G36*
G01*
X131842500Y-62100000D02*
X132317500Y-62100000D01*
G75*
G02*
X132555000Y-62337500I0J-237500D01*
G01*
X132555000Y-62837500D01*
G75*
G02*
X132317500Y-63075000I-237500J0D01*
G01*
X131842500Y-63075000D01*
G75*
G02*
X131605000Y-62837500I0J237500D01*
G01*
X131605000Y-62337500D01*
G75*
G02*
X131842500Y-62100000I237500J0D01*
G01*
G37*
%TD.AperFunction*%
%TD*%
%TO.P,R1,2*%
%TO.N,GND*%
%TA.AperFunction,SMDPad,CuDef*%
G36*
G01*
X142030000Y-65642500D02*
X142030000Y-65167500D01*
G75*
G02*
X142267500Y-64930000I237500J0D01*
G01*
X142767500Y-64930000D01*
G75*
G02*
X143005000Y-65167500I0J-237500D01*
G01*
X143005000Y-65642500D01*
G75*
G02*
X142767500Y-65880000I-237500J0D01*
G01*
X142267500Y-65880000D01*
G75*
G02*
X142030000Y-65642500I0J237500D01*
G01*
G37*
%TD.AperFunction*%
%TO.P,R1,1*%
%TO.N,/CC1*%
%TA.AperFunction,SMDPad,CuDef*%
G36*
G01*
X140205000Y-65642500D02*
X140205000Y-65167500D01*
G75*
G02*
X140442500Y-64930000I237500J0D01*
G01*
X140942500Y-64930000D01*
G75*
G02*
X141180000Y-65167500I0J-237500D01*
G01*
X141180000Y-65642500D01*
G75*
G02*
X140942500Y-65880000I-237500J0D01*
G01*
X140442500Y-65880000D01*
G75*
G02*
X140205000Y-65642500I0J237500D01*
G01*
G37*
%TD.AperFunction*%
%TD*%
D13*
%TO.P,J1,A1*%
%TO.N,GND*%
X141405000Y-63715000D03*
%TO.P,J1,A4*%
%TO.N,VCC*%
X140555000Y-63715000D03*
%TO.P,J1,A5*%
%TO.N,/CC1*%
X139705000Y-63715000D03*
%TO.P,J1,A6*%
%TO.N,/D+*%
X138855000Y-63715000D03*
%TO.P,J1,A7*%
%TO.N,/D-*%
X138005000Y-63715000D03*
%TO.P,J1,A8*%
%TO.N,Net-(J1-PadA8)*%
X137155000Y-63715000D03*
%TO.P,J1,A9*%
%TO.N,VCC*%
X136305000Y-63715000D03*
%TO.P,J1,A12*%
%TO.N,GND*%
X135455000Y-63715000D03*
%TO.P,J1,B1*%
X135455000Y-62365000D03*
%TO.P,J1,B4*%
%TO.N,VCC*%
X136305000Y-62365000D03*
%TO.P,J1,B5*%
%TO.N,/CC2*%
X137155000Y-62365000D03*
%TO.P,J1,B6*%
%TO.N,/D+*%
X138005000Y-62365000D03*
%TO.P,J1,B7*%
%TO.N,/D-*%
X138855000Y-62365000D03*
%TO.P,J1,B8*%
%TO.N,Net-(J1-PadB8)*%
X139705000Y-62365000D03*
%TO.P,J1,B9*%
%TO.N,VCC*%
X140555000Y-62365000D03*
%TO.P,J1,B12*%
%TO.N,GND*%
X141405000Y-62365000D03*
D14*
%TO.P,J1,P1*%
X142755000Y-62735000D03*
%TO.P,J1,P2*%
X134105000Y-62735000D03*
%TO.P,J1,P3*%
X134105000Y-59355000D03*
%TO.P,J1,P4*%
X142755000Y-59355000D03*
%TD*%
D15*
%TO.P,D12,1*%
%TO.N,/row3*%
X147750000Y-137160000D03*
%TO.P,D12,2*%
%TO.N,Net-(D12-Pad2)*%
X144350000Y-137160000D03*
%TD*%
%TO.P,D11,1*%
%TO.N,/row3*%
X166800000Y-137160000D03*
%TO.P,D11,2*%
%TO.N,Net-(D11-Pad2)*%
X163400000Y-137160000D03*
%TD*%
%TO.P,D10,1*%
%TO.N,/row3*%
X185850000Y-137160000D03*
%TO.P,D10,2*%
%TO.N,Net-(D10-Pad2)*%
X182450000Y-137160000D03*
%TD*%
%TO.P,D9,1*%
%TO.N,/row2*%
X147750000Y-118110000D03*
%TO.P,D9,2*%
%TO.N,Net-(D9-Pad2)*%
X144350000Y-118110000D03*
%TD*%
%TO.P,D8,1*%
%TO.N,/row2*%
X166800000Y-118110000D03*
%TO.P,D8,2*%
%TO.N,Net-(D8-Pad2)*%
X163400000Y-118110000D03*
%TD*%
%TO.P,D7,1*%
%TO.N,/row2*%
X185850000Y-118110000D03*
%TO.P,D7,2*%
%TO.N,Net-(D7-Pad2)*%
X182450000Y-118110000D03*
%TD*%
%TO.P,D6,1*%
%TO.N,/row1*%
X147750000Y-99060000D03*
%TO.P,D6,2*%
%TO.N,Net-(D6-Pad2)*%
X144350000Y-99060000D03*
%TD*%
%TO.P,D5,1*%
%TO.N,/row1*%
X166800000Y-99060000D03*
%TO.P,D5,2*%
%TO.N,Net-(D5-Pad2)*%
X163400000Y-99060000D03*
%TD*%
%TO.P,D4,1*%
%TO.N,/row1*%
X185850000Y-99060000D03*
%TO.P,D4,2*%
%TO.N,Net-(D4-Pad2)*%
X182450000Y-99060000D03*
%TD*%
%TO.P,D3,1*%
%TO.N,/row0*%
X147750000Y-80010000D03*
%TO.P,D3,2*%
%TO.N,Net-(D3-Pad2)*%
X144350000Y-80010000D03*
%TD*%
%TO.P,D2,1*%
%TO.N,/row0*%
X166800000Y-80010000D03*
%TO.P,D2,2*%
%TO.N,Net-(D2-Pad2)*%
X163400000Y-80010000D03*
%TD*%
%TO.P,D1,1*%
%TO.N,/row0*%
X185850000Y-80010000D03*
%TO.P,D1,2*%
%TO.N,Net-(D1-Pad2)*%
X182450000Y-80010000D03*
%TD*%
D16*
%TO.P,C4,1*%
%TO.N,GND*%
X161075000Y-60960000D03*
%TO.P,C4,2*%
%TO.N,VCC*%
X162775000Y-60960000D03*
%TD*%
%TO.P,C3,1*%
%TO.N,GND*%
X159805000Y-65405000D03*
%TO.P,C3,2*%
%TO.N,VCC*%
X161505000Y-65405000D03*
%TD*%
%TO.P,C2,1*%
%TO.N,GND*%
X159805000Y-63500000D03*
%TO.P,C2,2*%
%TO.N,VCC*%
X161505000Y-63500000D03*
%TD*%
%TO.P,C1,1*%
%TO.N,GND*%
X162980000Y-69596000D03*
%TO.P,C1,2*%
%TO.N,Net-(C1-Pad2)*%
X164680000Y-69596000D03*
%TD*%
D17*
%TO.N,/row1*%
X169037000Y-81788000D03*
X168829001Y-80264000D03*
%TO.N,/row2*%
X168519999Y-101101001D03*
X168021000Y-78486000D03*
%TO.N,/D+*%
X137758947Y-65441053D03*
%TO.N,/col0*%
X170815000Y-130556000D03*
X170815000Y-115570000D03*
X170815000Y-111252000D03*
X170815000Y-96266000D03*
X171069000Y-92202000D03*
X171069000Y-77216000D03*
%TO.N,/col1*%
X152019000Y-130048000D03*
X152019000Y-115570000D03*
X151765000Y-111252000D03*
X151765000Y-96266000D03*
X151765000Y-92456000D03*
X151765000Y-77216000D03*
X167950436Y-73081436D03*
%TO.N,GND*%
X168910000Y-63500000D03*
X164465000Y-59055000D03*
X152400000Y-66040000D03*
X152400000Y-62865000D03*
%TD*%
D18*
%TO.N,Net-(C1-Pad2)*%
X166416056Y-69596000D02*
X164680000Y-69596000D01*
X167388324Y-68623732D02*
X166416056Y-69596000D01*
%TO.N,VCC*%
X165169314Y-60960000D02*
X162775000Y-60960000D01*
X166256953Y-62047639D02*
X165169314Y-60960000D01*
X163800305Y-65795305D02*
X161505000Y-63500000D01*
X164559897Y-65795305D02*
X163800305Y-65795305D01*
X162460990Y-66360990D02*
X161505000Y-65405000D01*
X165125583Y-66360990D02*
X162460990Y-66360990D01*
X162775000Y-62230000D02*
X161505000Y-63500000D01*
X162775000Y-60960000D02*
X162775000Y-62230000D01*
X161505000Y-65405000D02*
X161505000Y-63500000D01*
X167362500Y-58766814D02*
X165169314Y-60960000D01*
X167362500Y-58420000D02*
X167362500Y-58766814D01*
X140555000Y-64174619D02*
X140555000Y-63715000D01*
X161505000Y-65405000D02*
X160629999Y-66280001D01*
X160629999Y-64529999D02*
X161505000Y-65405000D01*
X140910380Y-64529999D02*
X160629999Y-64529999D01*
X140555000Y-64174619D02*
X140910380Y-64529999D01*
X140555000Y-63715000D02*
X140555000Y-62365000D01*
X136305000Y-62365000D02*
X136305000Y-63715000D01*
%TO.N,/row0*%
X167825001Y-81035001D02*
X166800000Y-80010000D01*
X185850000Y-80010000D02*
X184824999Y-81035001D01*
X148775001Y-81035001D02*
X147750000Y-80010000D01*
X165774999Y-81035001D02*
X148775001Y-81035001D01*
X166800000Y-80010000D02*
X165774999Y-81035001D01*
X169554001Y-81035001D02*
X167825001Y-81035001D01*
X174413171Y-66809744D02*
X173964417Y-66360990D01*
X171831000Y-73406000D02*
X174413171Y-70823829D01*
X169923998Y-73406000D02*
X171831000Y-73406000D01*
X169554001Y-73775997D02*
X169923998Y-73406000D01*
X174413171Y-70823829D02*
X174413171Y-66809744D01*
X170316001Y-81035001D02*
X169554001Y-80273001D01*
X169554001Y-80273001D02*
X169554001Y-73775997D01*
X184824999Y-81035001D02*
X170316001Y-81035001D01*
X170316001Y-81035001D02*
X169554001Y-81035001D01*
%TO.N,Net-(D1-Pad2)*%
X183350334Y-80010000D02*
X182450000Y-80010000D01*
X185042500Y-78317834D02*
X183350334Y-80010000D01*
X185042500Y-72707500D02*
X185042500Y-78317834D01*
%TO.N,/row1*%
X167825001Y-100085001D02*
X166800000Y-99060000D01*
X185850000Y-99060000D02*
X184824999Y-100085001D01*
X148775001Y-100085001D02*
X147750000Y-99060000D01*
X165774999Y-100085001D02*
X148775001Y-100085001D01*
X166800000Y-99060000D02*
X165774999Y-100085001D01*
X169046001Y-81797001D02*
X169037000Y-81788000D01*
X169046001Y-100085001D02*
X167825001Y-100085001D01*
X168829001Y-73864587D02*
X169795588Y-72898000D01*
X168829001Y-80264000D02*
X168829001Y-73864587D01*
X169795588Y-72898000D02*
X171323000Y-72898000D01*
X173847486Y-67375430D02*
X173398732Y-66926676D01*
X173847486Y-70373514D02*
X173847486Y-67375430D01*
X171323000Y-72898000D02*
X173847486Y-70373514D01*
X169789999Y-100066999D02*
X169046001Y-99323001D01*
X169046001Y-99323001D02*
X169046001Y-81797001D01*
X169789999Y-100085001D02*
X169789999Y-100066999D01*
X184824999Y-100085001D02*
X169789999Y-100085001D01*
X169789999Y-100085001D02*
X169046001Y-100085001D01*
%TO.N,Net-(D2-Pad2)*%
X164300334Y-80010000D02*
X163400000Y-80010000D01*
X165992500Y-78317834D02*
X164300334Y-80010000D01*
X165992500Y-72707500D02*
X165992500Y-78317834D01*
%TO.N,/row2*%
X167825001Y-119135001D02*
X166800000Y-118110000D01*
X185850000Y-118110000D02*
X184824999Y-119135001D01*
X165774999Y-119135001D02*
X148775001Y-119135001D01*
X148775001Y-119135001D02*
X147750000Y-118110000D01*
X166800000Y-118110000D02*
X165774999Y-119135001D01*
X168519999Y-119135001D02*
X167825001Y-119135001D01*
X168021000Y-74036178D02*
X169667178Y-72390000D01*
X168021000Y-78486000D02*
X168021000Y-74036178D01*
X169667178Y-72390000D02*
X170815000Y-72390000D01*
X173281800Y-67941114D02*
X172833047Y-67492361D01*
X173281800Y-69923200D02*
X173281800Y-67941114D01*
X170815000Y-72390000D02*
X173281800Y-69923200D01*
X169535999Y-119135001D02*
X168519999Y-118119001D01*
X169554001Y-119135001D02*
X169535999Y-119135001D01*
X168519999Y-118119001D02*
X168519999Y-101101001D01*
X184824999Y-119135001D02*
X169554001Y-119135001D01*
X169554001Y-119135001D02*
X168519999Y-119135001D01*
%TO.N,Net-(D3-Pad2)*%
X145250334Y-80010000D02*
X144350000Y-80010000D01*
X146942500Y-78317834D02*
X145250334Y-80010000D01*
X146942500Y-72707500D02*
X146942500Y-78317834D01*
%TO.N,/row3*%
X167825001Y-138185001D02*
X166800000Y-137160000D01*
X184824999Y-138185001D02*
X167825001Y-138185001D01*
X185850000Y-137160000D02*
X184824999Y-138185001D01*
X148775001Y-138185001D02*
X147750000Y-137160000D01*
X165774999Y-138185001D02*
X148775001Y-138185001D01*
X166800000Y-137160000D02*
X165774999Y-138185001D01*
%TO.N,Net-(D4-Pad2)*%
X183350334Y-99060000D02*
X182450000Y-99060000D01*
X185042500Y-97367834D02*
X183350334Y-99060000D01*
X185042500Y-91757500D02*
X185042500Y-97367834D01*
%TO.N,Net-(D5-Pad2)*%
X164300334Y-99060000D02*
X163400000Y-99060000D01*
X165992500Y-97367834D02*
X164300334Y-99060000D01*
X165992500Y-91757500D02*
X165992500Y-97367834D01*
%TO.N,Net-(D7-Pad2)*%
X183350334Y-118110000D02*
X182450000Y-118110000D01*
X185042500Y-116417834D02*
X183350334Y-118110000D01*
X185042500Y-110807500D02*
X185042500Y-116417834D01*
%TO.N,Net-(D8-Pad2)*%
X164300334Y-118110000D02*
X163400000Y-118110000D01*
X165992500Y-116417834D02*
X164300334Y-118110000D01*
X165992500Y-110807500D02*
X165992500Y-116417834D01*
%TO.N,Net-(D9-Pad2)*%
X145250334Y-118110000D02*
X144350000Y-118110000D01*
X146942500Y-116417834D02*
X145250334Y-118110000D01*
X146942500Y-110807500D02*
X146942500Y-116417834D01*
%TO.N,Net-(D10-Pad2)*%
X184017499Y-137160000D02*
X182450000Y-137160000D01*
X185042500Y-136134999D02*
X184017499Y-137160000D01*
X185042500Y-129857500D02*
X185042500Y-136134999D01*
%TO.N,Net-(D11-Pad2)*%
X164300334Y-137160000D02*
X163400000Y-137160000D01*
X165992500Y-135467834D02*
X164300334Y-137160000D01*
X165992500Y-129857500D02*
X165992500Y-135467834D01*
D19*
%TO.N,/D+*%
X159107500Y-69215000D02*
X158380000Y-68487500D01*
X158380000Y-68487500D02*
X141194300Y-68487500D01*
X141194300Y-68487500D02*
X138270900Y-65564100D01*
D18*
X137881994Y-65564100D02*
X137758947Y-65441053D01*
X138270900Y-65564100D02*
X137881994Y-65564100D01*
D19*
%TO.N,/D-*%
X159107500Y-67310000D02*
X158380000Y-68037500D01*
X158380000Y-68037500D02*
X141380700Y-68037500D01*
X141380700Y-68037500D02*
X138589100Y-65245900D01*
D18*
X138005000Y-64661800D02*
X138005000Y-63715000D01*
X138589100Y-65245900D02*
X138005000Y-64661800D01*
X138855000Y-62752998D02*
X138855000Y-62365000D01*
X138005000Y-63602998D02*
X138855000Y-62752998D01*
X138005000Y-63715000D02*
X138005000Y-63602998D01*
%TO.N,Net-(R5-Pad1)*%
X174024246Y-64780866D02*
X177205866Y-64780866D01*
X170121551Y-68683561D02*
X174024246Y-64780866D01*
X177205866Y-64780866D02*
X178460000Y-66035000D01*
X170121551Y-69306349D02*
X170121551Y-68683561D01*
X170570305Y-69755103D02*
X170121551Y-69306349D01*
X178460000Y-66035000D02*
X184760000Y-66035000D01*
X169534134Y-58766634D02*
X169534134Y-60314134D01*
X169187500Y-58420000D02*
X169534134Y-58766634D01*
X174000866Y-64780866D02*
X174024246Y-64780866D01*
X169534134Y-60314134D02*
X174000866Y-64780866D01*
%TO.N,Net-(R6-Pad1)*%
X173920686Y-60960000D02*
X172833047Y-62047639D01*
X174982500Y-60960000D02*
X173920686Y-60960000D01*
%TO.N,/col0*%
X171192500Y-130933500D02*
X170815000Y-130556000D01*
X171192500Y-132397500D02*
X171192500Y-130933500D01*
X170815000Y-113725000D02*
X171192500Y-113347500D01*
X170815000Y-115570000D02*
X170815000Y-113725000D01*
X171192500Y-111629500D02*
X170815000Y-111252000D01*
X171192500Y-113347500D02*
X171192500Y-111629500D01*
X170815000Y-94675000D02*
X171192500Y-94297500D01*
X170815000Y-96266000D02*
X170815000Y-94675000D01*
X171192500Y-92325500D02*
X171069000Y-92202000D01*
X171192500Y-94297500D02*
X171192500Y-92325500D01*
X171069000Y-75371000D02*
X171192500Y-75247500D01*
X171069000Y-77216000D02*
X171069000Y-75371000D01*
X171192500Y-75247500D02*
X171192500Y-75060500D01*
X174978856Y-66244058D02*
X174530103Y-65795305D01*
X174978856Y-71274144D02*
X174978856Y-66244058D01*
X171192500Y-75060500D02*
X174978856Y-71274144D01*
%TO.N,/col1*%
X152142500Y-130171500D02*
X152019000Y-130048000D01*
X152142500Y-132397500D02*
X152142500Y-130171500D01*
X152019000Y-113471000D02*
X152142500Y-113347500D01*
X152019000Y-115570000D02*
X152019000Y-113471000D01*
X152142500Y-111629500D02*
X151765000Y-111252000D01*
X152142500Y-113347500D02*
X152142500Y-111629500D01*
X151765000Y-94675000D02*
X152142500Y-94297500D01*
X151765000Y-96266000D02*
X151765000Y-94675000D01*
X152142500Y-92833500D02*
X151765000Y-92456000D01*
X152142500Y-94297500D02*
X152142500Y-92833500D01*
X151765000Y-75625000D02*
X152142500Y-75247500D01*
X151765000Y-77216000D02*
X151765000Y-75625000D01*
X167950436Y-73081436D02*
X169149872Y-71882000D01*
X172716115Y-68506801D02*
X172267361Y-68058047D01*
X172716115Y-69726885D02*
X172716115Y-68506801D01*
X170561000Y-71882000D02*
X172716115Y-69726885D01*
X169149872Y-71882000D02*
X170561000Y-71882000D01*
%TO.N,/col2*%
X133092500Y-132397500D02*
X133092500Y-113347500D01*
X133092500Y-113347500D02*
X133092500Y-94297500D01*
X133092500Y-94297500D02*
X133092500Y-75247500D01*
X166531427Y-70612000D02*
X167954010Y-69189417D01*
X137728000Y-70612000D02*
X166531427Y-70612000D01*
X133092500Y-75247500D02*
X137728000Y-70612000D01*
%TO.N,GND*%
X141775000Y-62735000D02*
X141405000Y-62365000D01*
X142755000Y-62735000D02*
X141775000Y-62735000D01*
X141405000Y-63105000D02*
X141775000Y-62735000D01*
X141405000Y-63715000D02*
X141405000Y-63105000D01*
X135085000Y-62735000D02*
X135455000Y-62365000D01*
X134105000Y-62735000D02*
X135085000Y-62735000D01*
X135455000Y-63105000D02*
X135085000Y-62735000D01*
X135455000Y-63715000D02*
X135455000Y-63105000D01*
X162980000Y-69596000D02*
X162560990Y-70015010D01*
X158280010Y-70015010D02*
X158115000Y-69850000D01*
D19*
%TO.N,/D_N*%
X161660000Y-68487500D02*
X160932500Y-69215000D01*
X166256953Y-67492361D02*
X166009467Y-67492361D01*
X165014328Y-68487500D02*
X161660000Y-68487500D01*
X166009467Y-67492361D02*
X165014328Y-68487500D01*
%TO.N,/D_P*%
X161660000Y-68037500D02*
X160932500Y-67310000D01*
X164827930Y-68037500D02*
X161660000Y-68037500D01*
X165691268Y-67174162D02*
X164827930Y-68037500D01*
X165691268Y-66926676D02*
X165691268Y-67174162D01*
D18*
%TO.N,/CC1*%
X139705000Y-64417500D02*
X139705000Y-63715000D01*
X140692500Y-65405000D02*
X139705000Y-64417500D01*
%TO.N,/CC2*%
X133365510Y-61301990D02*
X132080000Y-62587500D01*
X136551609Y-61301990D02*
X133365510Y-61301990D01*
X137155000Y-61905381D02*
X136551609Y-61301990D01*
X137155000Y-62365000D02*
X137155000Y-61905381D01*
%TO.N,Net-(D6-Pad2)*%
X145250334Y-99060000D02*
X144350000Y-99060000D01*
X146942500Y-97367834D02*
X145250334Y-99060000D01*
X146942500Y-91757500D02*
X146942500Y-97367834D01*
%TO.N,Net-(D12-Pad2)*%
X145250334Y-137160000D02*
X144350000Y-137160000D01*
X146942500Y-135467834D02*
X145250334Y-137160000D01*
X146942500Y-129857500D02*
X146942500Y-135467834D01*
%TD*%
D20*
%TO.N,GND*%
X185957454Y-57610644D02*
X186474440Y-57766732D01*
X186951262Y-58020262D01*
X187369760Y-58361581D01*
X187713992Y-58777686D01*
X187970845Y-59252724D01*
X188130536Y-59768605D01*
X188188996Y-60324813D01*
X188189000Y-60325834D01*
X188189000Y-70358000D01*
X175484856Y-70358000D01*
X175484856Y-66442634D01*
X175490243Y-66437247D01*
X175537854Y-66379232D01*
X175573233Y-66313044D01*
X175595019Y-66241225D01*
X175602375Y-66166536D01*
X175595019Y-66091847D01*
X175573233Y-66020028D01*
X175537854Y-65953840D01*
X175490243Y-65895825D01*
X174881284Y-65286866D01*
X176996275Y-65286866D01*
X177228704Y-65519295D01*
X177227157Y-65535000D01*
X177227157Y-66535000D01*
X177234513Y-66609689D01*
X177256299Y-66681508D01*
X177291678Y-66747696D01*
X177339289Y-66805711D01*
X177397304Y-66853322D01*
X177463492Y-66888701D01*
X177535311Y-66910487D01*
X177610000Y-66917843D01*
X179310000Y-66917843D01*
X179384689Y-66910487D01*
X179456508Y-66888701D01*
X179522696Y-66853322D01*
X179580711Y-66805711D01*
X179628322Y-66747696D01*
X179663701Y-66681508D01*
X179685487Y-66609689D01*
X179692252Y-66541000D01*
X183527748Y-66541000D01*
X183534513Y-66609689D01*
X183556299Y-66681508D01*
X183591678Y-66747696D01*
X183639289Y-66805711D01*
X183697304Y-66853322D01*
X183763492Y-66888701D01*
X183835311Y-66910487D01*
X183910000Y-66917843D01*
X185610000Y-66917843D01*
X185684689Y-66910487D01*
X185756508Y-66888701D01*
X185822696Y-66853322D01*
X185880711Y-66805711D01*
X185928322Y-66747696D01*
X185963701Y-66681508D01*
X185985487Y-66609689D01*
X185992843Y-66535000D01*
X185992843Y-65535000D01*
X185985487Y-65460311D01*
X185963701Y-65388492D01*
X185928322Y-65322304D01*
X185880711Y-65264289D01*
X185822696Y-65216678D01*
X185756508Y-65181299D01*
X185684689Y-65159513D01*
X185610000Y-65152157D01*
X183910000Y-65152157D01*
X183835311Y-65159513D01*
X183763492Y-65181299D01*
X183697304Y-65216678D01*
X183639289Y-65264289D01*
X183591678Y-65322304D01*
X183556299Y-65388492D01*
X183534513Y-65460311D01*
X183527748Y-65529000D01*
X179692252Y-65529000D01*
X179685487Y-65460311D01*
X179663701Y-65388492D01*
X179628322Y-65322304D01*
X179580711Y-65264289D01*
X179522696Y-65216678D01*
X179456508Y-65181299D01*
X179384689Y-65159513D01*
X179310000Y-65152157D01*
X178292749Y-65152157D01*
X177581242Y-64440651D01*
X177565393Y-64421339D01*
X177488345Y-64358107D01*
X177400441Y-64311121D01*
X177305059Y-64282188D01*
X177230720Y-64274866D01*
X177230712Y-64274866D01*
X177205866Y-64272419D01*
X177181020Y-64274866D01*
X174859552Y-64274866D01*
X175490243Y-63644175D01*
X175537854Y-63586160D01*
X175573233Y-63519972D01*
X175595019Y-63448153D01*
X175602375Y-63373464D01*
X175595019Y-63298775D01*
X175573233Y-63226956D01*
X175537854Y-63160768D01*
X175490243Y-63102753D01*
X175172045Y-62784555D01*
X175114030Y-62736944D01*
X175110394Y-62735000D01*
X176971928Y-62735000D01*
X176984188Y-62859482D01*
X177020498Y-62979180D01*
X177079463Y-63089494D01*
X177158815Y-63186185D01*
X177255506Y-63265537D01*
X177365820Y-63324502D01*
X177485518Y-63360812D01*
X177610000Y-63373072D01*
X178174250Y-63370000D01*
X178333000Y-63211250D01*
X178333000Y-62362000D01*
X178587000Y-62362000D01*
X178587000Y-63211250D01*
X178745750Y-63370000D01*
X179310000Y-63373072D01*
X179434482Y-63360812D01*
X179554180Y-63324502D01*
X179664494Y-63265537D01*
X179761185Y-63186185D01*
X179840537Y-63089494D01*
X179899502Y-62979180D01*
X179935812Y-62859482D01*
X179948072Y-62735000D01*
X183271928Y-62735000D01*
X183284188Y-62859482D01*
X183320498Y-62979180D01*
X183379463Y-63089494D01*
X183458815Y-63186185D01*
X183555506Y-63265537D01*
X183665820Y-63324502D01*
X183785518Y-63360812D01*
X183910000Y-63373072D01*
X184474250Y-63370000D01*
X184633000Y-63211250D01*
X184633000Y-62362000D01*
X184887000Y-62362000D01*
X184887000Y-63211250D01*
X185045750Y-63370000D01*
X185610000Y-63373072D01*
X185734482Y-63360812D01*
X185854180Y-63324502D01*
X185964494Y-63265537D01*
X186061185Y-63186185D01*
X186140537Y-63089494D01*
X186199502Y-62979180D01*
X186235812Y-62859482D01*
X186248072Y-62735000D01*
X186245000Y-62520750D01*
X186086250Y-62362000D01*
X184887000Y-62362000D01*
X184633000Y-62362000D01*
X183433750Y-62362000D01*
X183275000Y-62520750D01*
X183271928Y-62735000D01*
X179948072Y-62735000D01*
X179945000Y-62520750D01*
X179786250Y-62362000D01*
X178587000Y-62362000D01*
X178333000Y-62362000D01*
X177133750Y-62362000D01*
X176975000Y-62520750D01*
X176971928Y-62735000D01*
X175110394Y-62735000D01*
X175047842Y-62701565D01*
X175016925Y-62692186D01*
X175007547Y-62661271D01*
X174972168Y-62595083D01*
X174924557Y-62537068D01*
X174606359Y-62218870D01*
X174548344Y-62171259D01*
X174482156Y-62135880D01*
X174451241Y-62126502D01*
X174441862Y-62095585D01*
X174406483Y-62029397D01*
X174358872Y-61971382D01*
X174040674Y-61653184D01*
X173987078Y-61609200D01*
X174130278Y-61466000D01*
X174176004Y-61466000D01*
X174216704Y-61542144D01*
X174293851Y-61636149D01*
X174387856Y-61713296D01*
X174495105Y-61770622D01*
X174611477Y-61805923D01*
X174732500Y-61817843D01*
X175232500Y-61817843D01*
X175353523Y-61805923D01*
X175469895Y-61770622D01*
X175577144Y-61713296D01*
X175671149Y-61636149D01*
X175704951Y-61594961D01*
X175730498Y-61679180D01*
X175789463Y-61789494D01*
X175868815Y-61886185D01*
X175965506Y-61965537D01*
X176075820Y-62024502D01*
X176195518Y-62060812D01*
X176320000Y-62073072D01*
X176521750Y-62070000D01*
X176680500Y-61911250D01*
X176680500Y-61087000D01*
X176934500Y-61087000D01*
X176934500Y-61911250D01*
X177093250Y-62070000D01*
X177095789Y-62070039D01*
X177133750Y-62108000D01*
X178333000Y-62108000D01*
X178333000Y-61258750D01*
X178587000Y-61258750D01*
X178587000Y-62108000D01*
X179786250Y-62108000D01*
X179945000Y-61949250D01*
X179948072Y-61735000D01*
X183271928Y-61735000D01*
X183275000Y-61949250D01*
X183433750Y-62108000D01*
X184633000Y-62108000D01*
X184633000Y-61258750D01*
X184887000Y-61258750D01*
X184887000Y-62108000D01*
X186086250Y-62108000D01*
X186245000Y-61949250D01*
X186248072Y-61735000D01*
X186235812Y-61610518D01*
X186199502Y-61490820D01*
X186140537Y-61380506D01*
X186061185Y-61283815D01*
X185964494Y-61204463D01*
X185854180Y-61145498D01*
X185734482Y-61109188D01*
X185610000Y-61096928D01*
X185045750Y-61100000D01*
X184887000Y-61258750D01*
X184633000Y-61258750D01*
X184474250Y-61100000D01*
X183910000Y-61096928D01*
X183785518Y-61109188D01*
X183665820Y-61145498D01*
X183555506Y-61204463D01*
X183458815Y-61283815D01*
X183379463Y-61380506D01*
X183320498Y-61490820D01*
X183284188Y-61610518D01*
X183271928Y-61735000D01*
X179948072Y-61735000D01*
X179935812Y-61610518D01*
X179899502Y-61490820D01*
X179840537Y-61380506D01*
X179761185Y-61283815D01*
X179664494Y-61204463D01*
X179554180Y-61145498D01*
X179434482Y-61109188D01*
X179310000Y-61096928D01*
X178745750Y-61100000D01*
X178587000Y-61258750D01*
X178333000Y-61258750D01*
X178174250Y-61100000D01*
X177782115Y-61097865D01*
X177771250Y-61087000D01*
X176934500Y-61087000D01*
X176680500Y-61087000D01*
X176660500Y-61087000D01*
X176660500Y-60833000D01*
X176680500Y-60833000D01*
X176680500Y-60008750D01*
X176934500Y-60008750D01*
X176934500Y-60833000D01*
X177771250Y-60833000D01*
X177930000Y-60674250D01*
X177933072Y-60485000D01*
X177920812Y-60360518D01*
X177884502Y-60240820D01*
X177825537Y-60130506D01*
X177746185Y-60033815D01*
X177649494Y-59954463D01*
X177539180Y-59895498D01*
X177419482Y-59859188D01*
X177295000Y-59846928D01*
X177093250Y-59850000D01*
X176934500Y-60008750D01*
X176680500Y-60008750D01*
X176521750Y-59850000D01*
X176320000Y-59846928D01*
X176195518Y-59859188D01*
X176075820Y-59895498D01*
X175965506Y-59954463D01*
X175868815Y-60033815D01*
X175789463Y-60130506D01*
X175730498Y-60240820D01*
X175704951Y-60325039D01*
X175671149Y-60283851D01*
X175577144Y-60206704D01*
X175469895Y-60149378D01*
X175353523Y-60114077D01*
X175232500Y-60102157D01*
X174732500Y-60102157D01*
X174611477Y-60114077D01*
X174495105Y-60149378D01*
X174387856Y-60206704D01*
X174293851Y-60283851D01*
X174216704Y-60377856D01*
X174176004Y-60454000D01*
X173945540Y-60454000D01*
X173920686Y-60451552D01*
X173895832Y-60454000D01*
X173821493Y-60461322D01*
X173726111Y-60490255D01*
X173638207Y-60537241D01*
X173561159Y-60600473D01*
X173545315Y-60619779D01*
X173271486Y-60893608D01*
X173227501Y-60840011D01*
X172909303Y-60521813D01*
X172851288Y-60474202D01*
X172785100Y-60438823D01*
X172754184Y-60429445D01*
X172744806Y-60398529D01*
X172709427Y-60332341D01*
X172661816Y-60274326D01*
X172343618Y-59956128D01*
X172285603Y-59908517D01*
X172219415Y-59873138D01*
X172188498Y-59863759D01*
X172179120Y-59832844D01*
X172143741Y-59766656D01*
X172096130Y-59708641D01*
X171777932Y-59390443D01*
X171719917Y-59342832D01*
X171653729Y-59307453D01*
X171622814Y-59298075D01*
X171613435Y-59267158D01*
X171578056Y-59200970D01*
X171530445Y-59142955D01*
X171212247Y-58824757D01*
X171154232Y-58777146D01*
X171088044Y-58741767D01*
X171016225Y-58719981D01*
X170941536Y-58712625D01*
X170866847Y-58719981D01*
X170795028Y-58741767D01*
X170728840Y-58777146D01*
X170670825Y-58824757D01*
X170040134Y-59455448D01*
X170040134Y-58797607D01*
X170045923Y-58778523D01*
X170057843Y-58657500D01*
X170057843Y-58182500D01*
X170045923Y-58061477D01*
X170010622Y-57945105D01*
X169953296Y-57837856D01*
X169876149Y-57743851D01*
X169782144Y-57666704D01*
X169674895Y-57609378D01*
X169558523Y-57574077D01*
X169437500Y-57562157D01*
X168937500Y-57562157D01*
X168816477Y-57574077D01*
X168700105Y-57609378D01*
X168592856Y-57666704D01*
X168498851Y-57743851D01*
X168421704Y-57837856D01*
X168364378Y-57945105D01*
X168329077Y-58061477D01*
X168317157Y-58182500D01*
X168317157Y-58657500D01*
X168327151Y-58758967D01*
X168294972Y-58741767D01*
X168226586Y-58721023D01*
X168232843Y-58657500D01*
X168232843Y-58182500D01*
X168220923Y-58061477D01*
X168185622Y-57945105D01*
X168128296Y-57837856D01*
X168051149Y-57743851D01*
X167957144Y-57666704D01*
X167849895Y-57609378D01*
X167733523Y-57574077D01*
X167612500Y-57562157D01*
X167112500Y-57562157D01*
X166991477Y-57574077D01*
X166875105Y-57609378D01*
X166767856Y-57666704D01*
X166673851Y-57743851D01*
X166596704Y-57837856D01*
X166539378Y-57945105D01*
X166504077Y-58061477D01*
X166492157Y-58182500D01*
X166492157Y-58657500D01*
X166504077Y-58778523D01*
X166534595Y-58879127D01*
X164959723Y-60454000D01*
X163707843Y-60454000D01*
X163707843Y-60410000D01*
X163700487Y-60335311D01*
X163678701Y-60263492D01*
X163643322Y-60197304D01*
X163595711Y-60139289D01*
X163537696Y-60091678D01*
X163471508Y-60056299D01*
X163399689Y-60034513D01*
X163325000Y-60027157D01*
X162225000Y-60027157D01*
X162150311Y-60034513D01*
X162140701Y-60037428D01*
X162076185Y-59958815D01*
X161979494Y-59879463D01*
X161869180Y-59820498D01*
X161749482Y-59784188D01*
X161625000Y-59771928D01*
X161360750Y-59775000D01*
X161202000Y-59933750D01*
X161202000Y-60833000D01*
X161222000Y-60833000D01*
X161222000Y-61087000D01*
X161202000Y-61087000D01*
X161202000Y-61986250D01*
X161360750Y-62145000D01*
X161625000Y-62148072D01*
X161749482Y-62135812D01*
X161869180Y-62099502D01*
X161979494Y-62040537D01*
X162076185Y-61961185D01*
X162140701Y-61882572D01*
X162150311Y-61885487D01*
X162225000Y-61892843D01*
X162269001Y-61892843D01*
X162269001Y-62020407D01*
X161722252Y-62567157D01*
X160955000Y-62567157D01*
X160880311Y-62574513D01*
X160870701Y-62577428D01*
X160806185Y-62498815D01*
X160709494Y-62419463D01*
X160599180Y-62360498D01*
X160479482Y-62324188D01*
X160355000Y-62311928D01*
X160090750Y-62315000D01*
X159932000Y-62473750D01*
X159932000Y-63373000D01*
X159952000Y-63373000D01*
X159952000Y-63627000D01*
X159932000Y-63627000D01*
X159932000Y-63647000D01*
X159678000Y-63647000D01*
X159678000Y-63627000D01*
X158778750Y-63627000D01*
X158620000Y-63785750D01*
X158617230Y-64023999D01*
X143694260Y-64023999D01*
X143804892Y-63861343D01*
X143896377Y-63645522D01*
X143944000Y-63416000D01*
X143944000Y-62950000D01*
X158616928Y-62950000D01*
X158620000Y-63214250D01*
X158778750Y-63373000D01*
X159678000Y-63373000D01*
X159678000Y-62473750D01*
X159519250Y-62315000D01*
X159255000Y-62311928D01*
X159130518Y-62324188D01*
X159010820Y-62360498D01*
X158900506Y-62419463D01*
X158803815Y-62498815D01*
X158724463Y-62595506D01*
X158665498Y-62705820D01*
X158629188Y-62825518D01*
X158616928Y-62950000D01*
X143944000Y-62950000D01*
X143944000Y-62862000D01*
X142882000Y-62862000D01*
X142882000Y-62882000D01*
X142628000Y-62882000D01*
X142628000Y-62862000D01*
X142608000Y-62862000D01*
X142608000Y-62608000D01*
X142628000Y-62608000D01*
X142628000Y-61158608D01*
X142461849Y-61045000D01*
X142628000Y-60931392D01*
X142628000Y-59482000D01*
X142882000Y-59482000D01*
X142882000Y-60931392D01*
X143048151Y-61045000D01*
X142882000Y-61158608D01*
X142882000Y-62608000D01*
X143944000Y-62608000D01*
X143944000Y-62054000D01*
X143896377Y-61824478D01*
X143804892Y-61608657D01*
X143737790Y-61510000D01*
X159886928Y-61510000D01*
X159899188Y-61634482D01*
X159935498Y-61754180D01*
X159994463Y-61864494D01*
X160073815Y-61961185D01*
X160170506Y-62040537D01*
X160280820Y-62099502D01*
X160400518Y-62135812D01*
X160525000Y-62148072D01*
X160789250Y-62145000D01*
X160948000Y-61986250D01*
X160948000Y-61087000D01*
X160048750Y-61087000D01*
X159890000Y-61245750D01*
X159886928Y-61510000D01*
X143737790Y-61510000D01*
X143673060Y-61414831D01*
X143505948Y-61250448D01*
X143309977Y-61121826D01*
X143120096Y-61045000D01*
X143309977Y-60968174D01*
X143505948Y-60839552D01*
X143673060Y-60675169D01*
X143804892Y-60481343D01*
X143835133Y-60410000D01*
X159886928Y-60410000D01*
X159890000Y-60674250D01*
X160048750Y-60833000D01*
X160948000Y-60833000D01*
X160948000Y-59933750D01*
X160789250Y-59775000D01*
X160525000Y-59771928D01*
X160400518Y-59784188D01*
X160280820Y-59820498D01*
X160170506Y-59879463D01*
X160073815Y-59958815D01*
X159994463Y-60055506D01*
X159935498Y-60165820D01*
X159899188Y-60285518D01*
X159886928Y-60410000D01*
X143835133Y-60410000D01*
X143896377Y-60265522D01*
X143944000Y-60036000D01*
X143944000Y-59482000D01*
X142882000Y-59482000D01*
X142628000Y-59482000D01*
X141566000Y-59482000D01*
X141566000Y-60036000D01*
X141613623Y-60265522D01*
X141705108Y-60481343D01*
X141836940Y-60675169D01*
X142004052Y-60839552D01*
X142200023Y-60968174D01*
X142389904Y-61045000D01*
X142200023Y-61121826D01*
X142004052Y-61250448D01*
X141836940Y-61414831D01*
X141789139Y-61485110D01*
X141690008Y-61443419D01*
X141504740Y-61405525D01*
X141315639Y-61404503D01*
X141129972Y-61440392D01*
X140954874Y-61511813D01*
X140945677Y-61516730D01*
X140932069Y-61712461D01*
X140813131Y-61593523D01*
X140727227Y-61679427D01*
X140624535Y-61659000D01*
X140485465Y-61659000D01*
X140349067Y-61686131D01*
X140220584Y-61739351D01*
X140130000Y-61799877D01*
X140039416Y-61739351D01*
X139910933Y-61686131D01*
X139774535Y-61659000D01*
X139635465Y-61659000D01*
X139499067Y-61686131D01*
X139370584Y-61739351D01*
X139280000Y-61799877D01*
X139189416Y-61739351D01*
X139060933Y-61686131D01*
X138924535Y-61659000D01*
X138785465Y-61659000D01*
X138649067Y-61686131D01*
X138520584Y-61739351D01*
X138430000Y-61799877D01*
X138339416Y-61739351D01*
X138210933Y-61686131D01*
X138074535Y-61659000D01*
X137935465Y-61659000D01*
X137799067Y-61686131D01*
X137670584Y-61739351D01*
X137639670Y-61760007D01*
X137624745Y-61710806D01*
X137622934Y-61707418D01*
X137577759Y-61622902D01*
X137514527Y-61545854D01*
X137495220Y-61530009D01*
X136926985Y-60961775D01*
X136911136Y-60942463D01*
X136834088Y-60879231D01*
X136746184Y-60832245D01*
X136650802Y-60803312D01*
X136576463Y-60795990D01*
X136576455Y-60795990D01*
X136551609Y-60793543D01*
X136526763Y-60795990D01*
X134900233Y-60795990D01*
X135023060Y-60675169D01*
X135154892Y-60481343D01*
X135246377Y-60265522D01*
X135294000Y-60036000D01*
X135294000Y-59482000D01*
X134232000Y-59482000D01*
X134232000Y-59502000D01*
X133978000Y-59502000D01*
X133978000Y-59482000D01*
X132916000Y-59482000D01*
X132916000Y-60036000D01*
X132963623Y-60265522D01*
X133055108Y-60481343D01*
X133186940Y-60675169D01*
X133312578Y-60798756D01*
X133266317Y-60803312D01*
X133170935Y-60832245D01*
X133083031Y-60879231D01*
X133005983Y-60942463D01*
X132990138Y-60961770D01*
X132234752Y-61717157D01*
X131842500Y-61717157D01*
X131721477Y-61729077D01*
X131605105Y-61764378D01*
X131497856Y-61821704D01*
X131403851Y-61898851D01*
X131326704Y-61992856D01*
X131269378Y-62100105D01*
X131234077Y-62216477D01*
X131222157Y-62337500D01*
X131222157Y-62837500D01*
X131234077Y-62958523D01*
X131269378Y-63074895D01*
X131326704Y-63182144D01*
X131403851Y-63276149D01*
X131445039Y-63309951D01*
X131360820Y-63335498D01*
X131250506Y-63394463D01*
X131216000Y-63422781D01*
X131216000Y-60344853D01*
X131270644Y-59787546D01*
X131426732Y-59270560D01*
X131680262Y-58793738D01*
X131777918Y-58674000D01*
X132916000Y-58674000D01*
X132916000Y-59228000D01*
X133978000Y-59228000D01*
X133978000Y-57778608D01*
X134232000Y-57778608D01*
X134232000Y-59228000D01*
X135294000Y-59228000D01*
X135294000Y-58674000D01*
X141566000Y-58674000D01*
X141566000Y-59228000D01*
X142628000Y-59228000D01*
X142628000Y-57778608D01*
X142882000Y-57778608D01*
X142882000Y-59228000D01*
X143944000Y-59228000D01*
X143944000Y-58674000D01*
X143896377Y-58444478D01*
X143804892Y-58228657D01*
X143673060Y-58034831D01*
X143505948Y-57870448D01*
X143309977Y-57741826D01*
X143092679Y-57653907D01*
X143065373Y-57653224D01*
X142882000Y-57778608D01*
X142628000Y-57778608D01*
X142444627Y-57653224D01*
X142417321Y-57653907D01*
X142200023Y-57741826D01*
X142004052Y-57870448D01*
X141836940Y-58034831D01*
X141705108Y-58228657D01*
X141613623Y-58444478D01*
X141566000Y-58674000D01*
X135294000Y-58674000D01*
X135246377Y-58444478D01*
X135154892Y-58228657D01*
X135023060Y-58034831D01*
X134855948Y-57870448D01*
X134659977Y-57741826D01*
X134442679Y-57653907D01*
X134415373Y-57653224D01*
X134232000Y-57778608D01*
X133978000Y-57778608D01*
X133794627Y-57653224D01*
X133767321Y-57653907D01*
X133550023Y-57741826D01*
X133354052Y-57870448D01*
X133186940Y-58034831D01*
X133055108Y-58228657D01*
X132963623Y-58444478D01*
X132916000Y-58674000D01*
X131777918Y-58674000D01*
X132021581Y-58375240D01*
X132437686Y-58031008D01*
X132912724Y-57774155D01*
X133428605Y-57614464D01*
X133984813Y-57556004D01*
X133985834Y-57556000D01*
X185400147Y-57556000D01*
X185957454Y-57610644D01*
%TA.AperFunction,Conductor*%
D21*
G36*
X185957454Y-57610644D02*
G01*
X186474440Y-57766732D01*
X186951262Y-58020262D01*
X187369760Y-58361581D01*
X187713992Y-58777686D01*
X187970845Y-59252724D01*
X188130536Y-59768605D01*
X188188996Y-60324813D01*
X188189000Y-60325834D01*
X188189000Y-70358000D01*
X175484856Y-70358000D01*
X175484856Y-66442634D01*
X175490243Y-66437247D01*
X175537854Y-66379232D01*
X175573233Y-66313044D01*
X175595019Y-66241225D01*
X175602375Y-66166536D01*
X175595019Y-66091847D01*
X175573233Y-66020028D01*
X175537854Y-65953840D01*
X175490243Y-65895825D01*
X174881284Y-65286866D01*
X176996275Y-65286866D01*
X177228704Y-65519295D01*
X177227157Y-65535000D01*
X177227157Y-66535000D01*
X177234513Y-66609689D01*
X177256299Y-66681508D01*
X177291678Y-66747696D01*
X177339289Y-66805711D01*
X177397304Y-66853322D01*
X177463492Y-66888701D01*
X177535311Y-66910487D01*
X177610000Y-66917843D01*
X179310000Y-66917843D01*
X179384689Y-66910487D01*
X179456508Y-66888701D01*
X179522696Y-66853322D01*
X179580711Y-66805711D01*
X179628322Y-66747696D01*
X179663701Y-66681508D01*
X179685487Y-66609689D01*
X179692252Y-66541000D01*
X183527748Y-66541000D01*
X183534513Y-66609689D01*
X183556299Y-66681508D01*
X183591678Y-66747696D01*
X183639289Y-66805711D01*
X183697304Y-66853322D01*
X183763492Y-66888701D01*
X183835311Y-66910487D01*
X183910000Y-66917843D01*
X185610000Y-66917843D01*
X185684689Y-66910487D01*
X185756508Y-66888701D01*
X185822696Y-66853322D01*
X185880711Y-66805711D01*
X185928322Y-66747696D01*
X185963701Y-66681508D01*
X185985487Y-66609689D01*
X185992843Y-66535000D01*
X185992843Y-65535000D01*
X185985487Y-65460311D01*
X185963701Y-65388492D01*
X185928322Y-65322304D01*
X185880711Y-65264289D01*
X185822696Y-65216678D01*
X185756508Y-65181299D01*
X185684689Y-65159513D01*
X185610000Y-65152157D01*
X183910000Y-65152157D01*
X183835311Y-65159513D01*
X183763492Y-65181299D01*
X183697304Y-65216678D01*
X183639289Y-65264289D01*
X183591678Y-65322304D01*
X183556299Y-65388492D01*
X183534513Y-65460311D01*
X183527748Y-65529000D01*
X179692252Y-65529000D01*
X179685487Y-65460311D01*
X179663701Y-65388492D01*
X179628322Y-65322304D01*
X179580711Y-65264289D01*
X179522696Y-65216678D01*
X179456508Y-65181299D01*
X179384689Y-65159513D01*
X179310000Y-65152157D01*
X178292749Y-65152157D01*
X177581242Y-64440651D01*
X177565393Y-64421339D01*
X177488345Y-64358107D01*
X177400441Y-64311121D01*
X177305059Y-64282188D01*
X177230720Y-64274866D01*
X177230712Y-64274866D01*
X177205866Y-64272419D01*
X177181020Y-64274866D01*
X174859552Y-64274866D01*
X175490243Y-63644175D01*
X175537854Y-63586160D01*
X175573233Y-63519972D01*
X175595019Y-63448153D01*
X175602375Y-63373464D01*
X175595019Y-63298775D01*
X175573233Y-63226956D01*
X175537854Y-63160768D01*
X175490243Y-63102753D01*
X175172045Y-62784555D01*
X175114030Y-62736944D01*
X175110394Y-62735000D01*
X176971928Y-62735000D01*
X176984188Y-62859482D01*
X177020498Y-62979180D01*
X177079463Y-63089494D01*
X177158815Y-63186185D01*
X177255506Y-63265537D01*
X177365820Y-63324502D01*
X177485518Y-63360812D01*
X177610000Y-63373072D01*
X178174250Y-63370000D01*
X178333000Y-63211250D01*
X178333000Y-62362000D01*
X178587000Y-62362000D01*
X178587000Y-63211250D01*
X178745750Y-63370000D01*
X179310000Y-63373072D01*
X179434482Y-63360812D01*
X179554180Y-63324502D01*
X179664494Y-63265537D01*
X179761185Y-63186185D01*
X179840537Y-63089494D01*
X179899502Y-62979180D01*
X179935812Y-62859482D01*
X179948072Y-62735000D01*
X183271928Y-62735000D01*
X183284188Y-62859482D01*
X183320498Y-62979180D01*
X183379463Y-63089494D01*
X183458815Y-63186185D01*
X183555506Y-63265537D01*
X183665820Y-63324502D01*
X183785518Y-63360812D01*
X183910000Y-63373072D01*
X184474250Y-63370000D01*
X184633000Y-63211250D01*
X184633000Y-62362000D01*
X184887000Y-62362000D01*
X184887000Y-63211250D01*
X185045750Y-63370000D01*
X185610000Y-63373072D01*
X185734482Y-63360812D01*
X185854180Y-63324502D01*
X185964494Y-63265537D01*
X186061185Y-63186185D01*
X186140537Y-63089494D01*
X186199502Y-62979180D01*
X186235812Y-62859482D01*
X186248072Y-62735000D01*
X186245000Y-62520750D01*
X186086250Y-62362000D01*
X184887000Y-62362000D01*
X184633000Y-62362000D01*
X183433750Y-62362000D01*
X183275000Y-62520750D01*
X183271928Y-62735000D01*
X179948072Y-62735000D01*
X179945000Y-62520750D01*
X179786250Y-62362000D01*
X178587000Y-62362000D01*
X178333000Y-62362000D01*
X177133750Y-62362000D01*
X176975000Y-62520750D01*
X176971928Y-62735000D01*
X175110394Y-62735000D01*
X175047842Y-62701565D01*
X175016925Y-62692186D01*
X175007547Y-62661271D01*
X174972168Y-62595083D01*
X174924557Y-62537068D01*
X174606359Y-62218870D01*
X174548344Y-62171259D01*
X174482156Y-62135880D01*
X174451241Y-62126502D01*
X174441862Y-62095585D01*
X174406483Y-62029397D01*
X174358872Y-61971382D01*
X174040674Y-61653184D01*
X173987078Y-61609200D01*
X174130278Y-61466000D01*
X174176004Y-61466000D01*
X174216704Y-61542144D01*
X174293851Y-61636149D01*
X174387856Y-61713296D01*
X174495105Y-61770622D01*
X174611477Y-61805923D01*
X174732500Y-61817843D01*
X175232500Y-61817843D01*
X175353523Y-61805923D01*
X175469895Y-61770622D01*
X175577144Y-61713296D01*
X175671149Y-61636149D01*
X175704951Y-61594961D01*
X175730498Y-61679180D01*
X175789463Y-61789494D01*
X175868815Y-61886185D01*
X175965506Y-61965537D01*
X176075820Y-62024502D01*
X176195518Y-62060812D01*
X176320000Y-62073072D01*
X176521750Y-62070000D01*
X176680500Y-61911250D01*
X176680500Y-61087000D01*
X176934500Y-61087000D01*
X176934500Y-61911250D01*
X177093250Y-62070000D01*
X177095789Y-62070039D01*
X177133750Y-62108000D01*
X178333000Y-62108000D01*
X178333000Y-61258750D01*
X178587000Y-61258750D01*
X178587000Y-62108000D01*
X179786250Y-62108000D01*
X179945000Y-61949250D01*
X179948072Y-61735000D01*
X183271928Y-61735000D01*
X183275000Y-61949250D01*
X183433750Y-62108000D01*
X184633000Y-62108000D01*
X184633000Y-61258750D01*
X184887000Y-61258750D01*
X184887000Y-62108000D01*
X186086250Y-62108000D01*
X186245000Y-61949250D01*
X186248072Y-61735000D01*
X186235812Y-61610518D01*
X186199502Y-61490820D01*
X186140537Y-61380506D01*
X186061185Y-61283815D01*
X185964494Y-61204463D01*
X185854180Y-61145498D01*
X185734482Y-61109188D01*
X185610000Y-61096928D01*
X185045750Y-61100000D01*
X184887000Y-61258750D01*
X184633000Y-61258750D01*
X184474250Y-61100000D01*
X183910000Y-61096928D01*
X183785518Y-61109188D01*
X183665820Y-61145498D01*
X183555506Y-61204463D01*
X183458815Y-61283815D01*
X183379463Y-61380506D01*
X183320498Y-61490820D01*
X183284188Y-61610518D01*
X183271928Y-61735000D01*
X179948072Y-61735000D01*
X179935812Y-61610518D01*
X179899502Y-61490820D01*
X179840537Y-61380506D01*
X179761185Y-61283815D01*
X179664494Y-61204463D01*
X179554180Y-61145498D01*
X179434482Y-61109188D01*
X179310000Y-61096928D01*
X178745750Y-61100000D01*
X178587000Y-61258750D01*
X178333000Y-61258750D01*
X178174250Y-61100000D01*
X177782115Y-61097865D01*
X177771250Y-61087000D01*
X176934500Y-61087000D01*
X176680500Y-61087000D01*
X176660500Y-61087000D01*
X176660500Y-60833000D01*
X176680500Y-60833000D01*
X176680500Y-60008750D01*
X176934500Y-60008750D01*
X176934500Y-60833000D01*
X177771250Y-60833000D01*
X177930000Y-60674250D01*
X177933072Y-60485000D01*
X177920812Y-60360518D01*
X177884502Y-60240820D01*
X177825537Y-60130506D01*
X177746185Y-60033815D01*
X177649494Y-59954463D01*
X177539180Y-59895498D01*
X177419482Y-59859188D01*
X177295000Y-59846928D01*
X177093250Y-59850000D01*
X176934500Y-60008750D01*
X176680500Y-60008750D01*
X176521750Y-59850000D01*
X176320000Y-59846928D01*
X176195518Y-59859188D01*
X176075820Y-59895498D01*
X175965506Y-59954463D01*
X175868815Y-60033815D01*
X175789463Y-60130506D01*
X175730498Y-60240820D01*
X175704951Y-60325039D01*
X175671149Y-60283851D01*
X175577144Y-60206704D01*
X175469895Y-60149378D01*
X175353523Y-60114077D01*
X175232500Y-60102157D01*
X174732500Y-60102157D01*
X174611477Y-60114077D01*
X174495105Y-60149378D01*
X174387856Y-60206704D01*
X174293851Y-60283851D01*
X174216704Y-60377856D01*
X174176004Y-60454000D01*
X173945540Y-60454000D01*
X173920686Y-60451552D01*
X173895832Y-60454000D01*
X173821493Y-60461322D01*
X173726111Y-60490255D01*
X173638207Y-60537241D01*
X173561159Y-60600473D01*
X173545315Y-60619779D01*
X173271486Y-60893608D01*
X173227501Y-60840011D01*
X172909303Y-60521813D01*
X172851288Y-60474202D01*
X172785100Y-60438823D01*
X172754184Y-60429445D01*
X172744806Y-60398529D01*
X172709427Y-60332341D01*
X172661816Y-60274326D01*
X172343618Y-59956128D01*
X172285603Y-59908517D01*
X172219415Y-59873138D01*
X172188498Y-59863759D01*
X172179120Y-59832844D01*
X172143741Y-59766656D01*
X172096130Y-59708641D01*
X171777932Y-59390443D01*
X171719917Y-59342832D01*
X171653729Y-59307453D01*
X171622814Y-59298075D01*
X171613435Y-59267158D01*
X171578056Y-59200970D01*
X171530445Y-59142955D01*
X171212247Y-58824757D01*
X171154232Y-58777146D01*
X171088044Y-58741767D01*
X171016225Y-58719981D01*
X170941536Y-58712625D01*
X170866847Y-58719981D01*
X170795028Y-58741767D01*
X170728840Y-58777146D01*
X170670825Y-58824757D01*
X170040134Y-59455448D01*
X170040134Y-58797607D01*
X170045923Y-58778523D01*
X170057843Y-58657500D01*
X170057843Y-58182500D01*
X170045923Y-58061477D01*
X170010622Y-57945105D01*
X169953296Y-57837856D01*
X169876149Y-57743851D01*
X169782144Y-57666704D01*
X169674895Y-57609378D01*
X169558523Y-57574077D01*
X169437500Y-57562157D01*
X168937500Y-57562157D01*
X168816477Y-57574077D01*
X168700105Y-57609378D01*
X168592856Y-57666704D01*
X168498851Y-57743851D01*
X168421704Y-57837856D01*
X168364378Y-57945105D01*
X168329077Y-58061477D01*
X168317157Y-58182500D01*
X168317157Y-58657500D01*
X168327151Y-58758967D01*
X168294972Y-58741767D01*
X168226586Y-58721023D01*
X168232843Y-58657500D01*
X168232843Y-58182500D01*
X168220923Y-58061477D01*
X168185622Y-57945105D01*
X168128296Y-57837856D01*
X168051149Y-57743851D01*
X167957144Y-57666704D01*
X167849895Y-57609378D01*
X167733523Y-57574077D01*
X167612500Y-57562157D01*
X167112500Y-57562157D01*
X166991477Y-57574077D01*
X166875105Y-57609378D01*
X166767856Y-57666704D01*
X166673851Y-57743851D01*
X166596704Y-57837856D01*
X166539378Y-57945105D01*
X166504077Y-58061477D01*
X166492157Y-58182500D01*
X166492157Y-58657500D01*
X166504077Y-58778523D01*
X166534595Y-58879127D01*
X164959723Y-60454000D01*
X163707843Y-60454000D01*
X163707843Y-60410000D01*
X163700487Y-60335311D01*
X163678701Y-60263492D01*
X163643322Y-60197304D01*
X163595711Y-60139289D01*
X163537696Y-60091678D01*
X163471508Y-60056299D01*
X163399689Y-60034513D01*
X163325000Y-60027157D01*
X162225000Y-60027157D01*
X162150311Y-60034513D01*
X162140701Y-60037428D01*
X162076185Y-59958815D01*
X161979494Y-59879463D01*
X161869180Y-59820498D01*
X161749482Y-59784188D01*
X161625000Y-59771928D01*
X161360750Y-59775000D01*
X161202000Y-59933750D01*
X161202000Y-60833000D01*
X161222000Y-60833000D01*
X161222000Y-61087000D01*
X161202000Y-61087000D01*
X161202000Y-61986250D01*
X161360750Y-62145000D01*
X161625000Y-62148072D01*
X161749482Y-62135812D01*
X161869180Y-62099502D01*
X161979494Y-62040537D01*
X162076185Y-61961185D01*
X162140701Y-61882572D01*
X162150311Y-61885487D01*
X162225000Y-61892843D01*
X162269001Y-61892843D01*
X162269001Y-62020407D01*
X161722252Y-62567157D01*
X160955000Y-62567157D01*
X160880311Y-62574513D01*
X160870701Y-62577428D01*
X160806185Y-62498815D01*
X160709494Y-62419463D01*
X160599180Y-62360498D01*
X160479482Y-62324188D01*
X160355000Y-62311928D01*
X160090750Y-62315000D01*
X159932000Y-62473750D01*
X159932000Y-63373000D01*
X159952000Y-63373000D01*
X159952000Y-63627000D01*
X159932000Y-63627000D01*
X159932000Y-63647000D01*
X159678000Y-63647000D01*
X159678000Y-63627000D01*
X158778750Y-63627000D01*
X158620000Y-63785750D01*
X158617230Y-64023999D01*
X143694260Y-64023999D01*
X143804892Y-63861343D01*
X143896377Y-63645522D01*
X143944000Y-63416000D01*
X143944000Y-62950000D01*
X158616928Y-62950000D01*
X158620000Y-63214250D01*
X158778750Y-63373000D01*
X159678000Y-63373000D01*
X159678000Y-62473750D01*
X159519250Y-62315000D01*
X159255000Y-62311928D01*
X159130518Y-62324188D01*
X159010820Y-62360498D01*
X158900506Y-62419463D01*
X158803815Y-62498815D01*
X158724463Y-62595506D01*
X158665498Y-62705820D01*
X158629188Y-62825518D01*
X158616928Y-62950000D01*
X143944000Y-62950000D01*
X143944000Y-62862000D01*
X142882000Y-62862000D01*
X142882000Y-62882000D01*
X142628000Y-62882000D01*
X142628000Y-62862000D01*
X142608000Y-62862000D01*
X142608000Y-62608000D01*
X142628000Y-62608000D01*
X142628000Y-61158608D01*
X142461849Y-61045000D01*
X142628000Y-60931392D01*
X142628000Y-59482000D01*
X142882000Y-59482000D01*
X142882000Y-60931392D01*
X143048151Y-61045000D01*
X142882000Y-61158608D01*
X142882000Y-62608000D01*
X143944000Y-62608000D01*
X143944000Y-62054000D01*
X143896377Y-61824478D01*
X143804892Y-61608657D01*
X143737790Y-61510000D01*
X159886928Y-61510000D01*
X159899188Y-61634482D01*
X159935498Y-61754180D01*
X159994463Y-61864494D01*
X160073815Y-61961185D01*
X160170506Y-62040537D01*
X160280820Y-62099502D01*
X160400518Y-62135812D01*
X160525000Y-62148072D01*
X160789250Y-62145000D01*
X160948000Y-61986250D01*
X160948000Y-61087000D01*
X160048750Y-61087000D01*
X159890000Y-61245750D01*
X159886928Y-61510000D01*
X143737790Y-61510000D01*
X143673060Y-61414831D01*
X143505948Y-61250448D01*
X143309977Y-61121826D01*
X143120096Y-61045000D01*
X143309977Y-60968174D01*
X143505948Y-60839552D01*
X143673060Y-60675169D01*
X143804892Y-60481343D01*
X143835133Y-60410000D01*
X159886928Y-60410000D01*
X159890000Y-60674250D01*
X160048750Y-60833000D01*
X160948000Y-60833000D01*
X160948000Y-59933750D01*
X160789250Y-59775000D01*
X160525000Y-59771928D01*
X160400518Y-59784188D01*
X160280820Y-59820498D01*
X160170506Y-59879463D01*
X160073815Y-59958815D01*
X159994463Y-60055506D01*
X159935498Y-60165820D01*
X159899188Y-60285518D01*
X159886928Y-60410000D01*
X143835133Y-60410000D01*
X143896377Y-60265522D01*
X143944000Y-60036000D01*
X143944000Y-59482000D01*
X142882000Y-59482000D01*
X142628000Y-59482000D01*
X141566000Y-59482000D01*
X141566000Y-60036000D01*
X141613623Y-60265522D01*
X141705108Y-60481343D01*
X141836940Y-60675169D01*
X142004052Y-60839552D01*
X142200023Y-60968174D01*
X142389904Y-61045000D01*
X142200023Y-61121826D01*
X142004052Y-61250448D01*
X141836940Y-61414831D01*
X141789139Y-61485110D01*
X141690008Y-61443419D01*
X141504740Y-61405525D01*
X141315639Y-61404503D01*
X141129972Y-61440392D01*
X140954874Y-61511813D01*
X140945677Y-61516730D01*
X140932069Y-61712461D01*
X140813131Y-61593523D01*
X140727227Y-61679427D01*
X140624535Y-61659000D01*
X140485465Y-61659000D01*
X140349067Y-61686131D01*
X140220584Y-61739351D01*
X140130000Y-61799877D01*
X140039416Y-61739351D01*
X139910933Y-61686131D01*
X139774535Y-61659000D01*
X139635465Y-61659000D01*
X139499067Y-61686131D01*
X139370584Y-61739351D01*
X139280000Y-61799877D01*
X139189416Y-61739351D01*
X139060933Y-61686131D01*
X138924535Y-61659000D01*
X138785465Y-61659000D01*
X138649067Y-61686131D01*
X138520584Y-61739351D01*
X138430000Y-61799877D01*
X138339416Y-61739351D01*
X138210933Y-61686131D01*
X138074535Y-61659000D01*
X137935465Y-61659000D01*
X137799067Y-61686131D01*
X137670584Y-61739351D01*
X137639670Y-61760007D01*
X137624745Y-61710806D01*
X137622934Y-61707418D01*
X137577759Y-61622902D01*
X137514527Y-61545854D01*
X137495220Y-61530009D01*
X136926985Y-60961775D01*
X136911136Y-60942463D01*
X136834088Y-60879231D01*
X136746184Y-60832245D01*
X136650802Y-60803312D01*
X136576463Y-60795990D01*
X136576455Y-60795990D01*
X136551609Y-60793543D01*
X136526763Y-60795990D01*
X134900233Y-60795990D01*
X135023060Y-60675169D01*
X135154892Y-60481343D01*
X135246377Y-60265522D01*
X135294000Y-60036000D01*
X135294000Y-59482000D01*
X134232000Y-59482000D01*
X134232000Y-59502000D01*
X133978000Y-59502000D01*
X133978000Y-59482000D01*
X132916000Y-59482000D01*
X132916000Y-60036000D01*
X132963623Y-60265522D01*
X133055108Y-60481343D01*
X133186940Y-60675169D01*
X133312578Y-60798756D01*
X133266317Y-60803312D01*
X133170935Y-60832245D01*
X133083031Y-60879231D01*
X133005983Y-60942463D01*
X132990138Y-60961770D01*
X132234752Y-61717157D01*
X131842500Y-61717157D01*
X131721477Y-61729077D01*
X131605105Y-61764378D01*
X131497856Y-61821704D01*
X131403851Y-61898851D01*
X131326704Y-61992856D01*
X131269378Y-62100105D01*
X131234077Y-62216477D01*
X131222157Y-62337500D01*
X131222157Y-62837500D01*
X131234077Y-62958523D01*
X131269378Y-63074895D01*
X131326704Y-63182144D01*
X131403851Y-63276149D01*
X131445039Y-63309951D01*
X131360820Y-63335498D01*
X131250506Y-63394463D01*
X131216000Y-63422781D01*
X131216000Y-60344853D01*
X131270644Y-59787546D01*
X131426732Y-59270560D01*
X131680262Y-58793738D01*
X131777918Y-58674000D01*
X132916000Y-58674000D01*
X132916000Y-59228000D01*
X133978000Y-59228000D01*
X133978000Y-57778608D01*
X134232000Y-57778608D01*
X134232000Y-59228000D01*
X135294000Y-59228000D01*
X135294000Y-58674000D01*
X141566000Y-58674000D01*
X141566000Y-59228000D01*
X142628000Y-59228000D01*
X142628000Y-57778608D01*
X142882000Y-57778608D01*
X142882000Y-59228000D01*
X143944000Y-59228000D01*
X143944000Y-58674000D01*
X143896377Y-58444478D01*
X143804892Y-58228657D01*
X143673060Y-58034831D01*
X143505948Y-57870448D01*
X143309977Y-57741826D01*
X143092679Y-57653907D01*
X143065373Y-57653224D01*
X142882000Y-57778608D01*
X142628000Y-57778608D01*
X142444627Y-57653224D01*
X142417321Y-57653907D01*
X142200023Y-57741826D01*
X142004052Y-57870448D01*
X141836940Y-58034831D01*
X141705108Y-58228657D01*
X141613623Y-58444478D01*
X141566000Y-58674000D01*
X135294000Y-58674000D01*
X135246377Y-58444478D01*
X135154892Y-58228657D01*
X135023060Y-58034831D01*
X134855948Y-57870448D01*
X134659977Y-57741826D01*
X134442679Y-57653907D01*
X134415373Y-57653224D01*
X134232000Y-57778608D01*
X133978000Y-57778608D01*
X133794627Y-57653224D01*
X133767321Y-57653907D01*
X133550023Y-57741826D01*
X133354052Y-57870448D01*
X133186940Y-58034831D01*
X133055108Y-58228657D01*
X132963623Y-58444478D01*
X132916000Y-58674000D01*
X131777918Y-58674000D01*
X132021581Y-58375240D01*
X132437686Y-58031008D01*
X132912724Y-57774155D01*
X133428605Y-57614464D01*
X133984813Y-57556004D01*
X133985834Y-57556000D01*
X185400147Y-57556000D01*
X185957454Y-57610644D01*
G37*
%TD.AperFunction*%
D20*
X134232000Y-62608000D02*
X134252000Y-62608000D01*
X134252000Y-62862000D01*
X134232000Y-62862000D01*
X134232000Y-64311392D01*
X134415373Y-64436776D01*
X134442679Y-64436093D01*
X134659977Y-64348174D01*
X134855948Y-64219552D01*
X135023060Y-64055169D01*
X135154892Y-63861343D01*
X135173905Y-63816490D01*
X135275395Y-63715000D01*
X135261253Y-63700858D01*
X135440858Y-63521253D01*
X135455000Y-63535395D01*
X135469143Y-63521253D01*
X135599000Y-63651110D01*
X135599000Y-63778890D01*
X135469143Y-63908748D01*
X135455000Y-63894605D01*
X134982069Y-64367536D01*
X134995677Y-64563270D01*
X135169992Y-64636581D01*
X135355260Y-64674475D01*
X135544361Y-64675497D01*
X135730028Y-64639608D01*
X135905126Y-64568187D01*
X135914323Y-64563270D01*
X135927931Y-64367539D01*
X136046869Y-64486477D01*
X136132773Y-64400573D01*
X136235465Y-64421000D01*
X136374535Y-64421000D01*
X136510933Y-64393869D01*
X136639416Y-64340649D01*
X136730000Y-64280123D01*
X136820584Y-64340649D01*
X136949067Y-64393869D01*
X137085465Y-64421000D01*
X137224535Y-64421000D01*
X137360933Y-64393869D01*
X137489416Y-64340649D01*
X137499000Y-64334245D01*
X137499000Y-64636953D01*
X137496553Y-64661800D01*
X137499000Y-64686646D01*
X137499000Y-64686653D01*
X137500583Y-64702723D01*
X137389005Y-64748940D01*
X137261088Y-64834411D01*
X137152305Y-64943194D01*
X137066834Y-65071111D01*
X137007960Y-65213244D01*
X136977947Y-65364131D01*
X136977947Y-65517975D01*
X137007960Y-65668862D01*
X137066834Y-65810995D01*
X137152305Y-65938912D01*
X137261088Y-66047695D01*
X137389005Y-66133166D01*
X137531138Y-66192040D01*
X137682025Y-66222053D01*
X137835869Y-66222053D01*
X137986756Y-66192040D01*
X138128889Y-66133166D01*
X138147377Y-66120813D01*
X140837475Y-68810912D01*
X140852536Y-68829264D01*
X140925778Y-68889372D01*
X141009339Y-68934036D01*
X141072503Y-68953196D01*
X141100007Y-68961540D01*
X141194300Y-68970827D01*
X141217926Y-68968500D01*
X158180764Y-68968500D01*
X158237157Y-69024893D01*
X158237157Y-69452500D01*
X158249077Y-69573523D01*
X158284378Y-69689895D01*
X158341704Y-69797144D01*
X158418851Y-69891149D01*
X158512856Y-69968296D01*
X158620105Y-70025622D01*
X158736477Y-70060923D01*
X158857500Y-70072843D01*
X159357500Y-70072843D01*
X159478523Y-70060923D01*
X159594895Y-70025622D01*
X159702144Y-69968296D01*
X159796149Y-69891149D01*
X159873296Y-69797144D01*
X159930622Y-69689895D01*
X159965923Y-69573523D01*
X159977843Y-69452500D01*
X159977843Y-68977500D01*
X159965923Y-68856477D01*
X159930622Y-68740105D01*
X159873296Y-68632856D01*
X159796149Y-68538851D01*
X159702144Y-68461704D01*
X159594895Y-68404378D01*
X159478523Y-68369077D01*
X159357500Y-68357157D01*
X158929893Y-68357157D01*
X158835236Y-68262500D01*
X158929893Y-68167843D01*
X159357500Y-68167843D01*
X159478523Y-68155923D01*
X159594895Y-68120622D01*
X159702144Y-68063296D01*
X159796149Y-67986149D01*
X159873296Y-67892144D01*
X159930622Y-67784895D01*
X159965923Y-67668523D01*
X159977843Y-67547500D01*
X159977843Y-67072500D01*
X159965923Y-66951477D01*
X159930622Y-66835105D01*
X159873296Y-66727856D01*
X159796149Y-66633851D01*
X159702144Y-66556704D01*
X159604655Y-66504595D01*
X159678000Y-66431250D01*
X159678000Y-65532000D01*
X158778750Y-65532000D01*
X158620000Y-65690750D01*
X158616928Y-65955000D01*
X158629188Y-66079482D01*
X158665498Y-66199180D01*
X158724463Y-66309494D01*
X158803815Y-66406185D01*
X158859832Y-66452157D01*
X158857500Y-66452157D01*
X158736477Y-66464077D01*
X158620105Y-66499378D01*
X158512856Y-66556704D01*
X158418851Y-66633851D01*
X158341704Y-66727856D01*
X158284378Y-66835105D01*
X158249077Y-66951477D01*
X158237157Y-67072500D01*
X158237157Y-67500107D01*
X158180764Y-67556500D01*
X141579936Y-67556500D01*
X140253842Y-66230406D01*
X140321477Y-66250923D01*
X140442500Y-66262843D01*
X140942500Y-66262843D01*
X141063523Y-66250923D01*
X141179895Y-66215622D01*
X141287144Y-66158296D01*
X141381149Y-66081149D01*
X141414951Y-66039961D01*
X141440498Y-66124180D01*
X141499463Y-66234494D01*
X141578815Y-66331185D01*
X141675506Y-66410537D01*
X141785820Y-66469502D01*
X141905518Y-66505812D01*
X142030000Y-66518072D01*
X142231750Y-66515000D01*
X142390500Y-66356250D01*
X142390500Y-65532000D01*
X142644500Y-65532000D01*
X142644500Y-66356250D01*
X142803250Y-66515000D01*
X143005000Y-66518072D01*
X143129482Y-66505812D01*
X143249180Y-66469502D01*
X143359494Y-66410537D01*
X143456185Y-66331185D01*
X143535537Y-66234494D01*
X143594502Y-66124180D01*
X143630812Y-66004482D01*
X143643072Y-65880000D01*
X143640000Y-65690750D01*
X143481250Y-65532000D01*
X142644500Y-65532000D01*
X142390500Y-65532000D01*
X142370500Y-65532000D01*
X142370500Y-65278000D01*
X142390500Y-65278000D01*
X142390500Y-65258000D01*
X142644500Y-65258000D01*
X142644500Y-65278000D01*
X143481250Y-65278000D01*
X143640000Y-65119250D01*
X143641351Y-65035999D01*
X158619032Y-65035999D01*
X158620000Y-65119250D01*
X158778750Y-65278000D01*
X159678000Y-65278000D01*
X159678000Y-65258000D01*
X159932000Y-65258000D01*
X159932000Y-65278000D01*
X159952000Y-65278000D01*
X159952000Y-65532000D01*
X159932000Y-65532000D01*
X159932000Y-66431250D01*
X160090750Y-66590000D01*
X160231166Y-66591632D01*
X160256975Y-66623081D01*
X160243851Y-66633851D01*
X160166704Y-66727856D01*
X160109378Y-66835105D01*
X160074077Y-66951477D01*
X160062157Y-67072500D01*
X160062157Y-67547500D01*
X160074077Y-67668523D01*
X160109378Y-67784895D01*
X160166704Y-67892144D01*
X160243851Y-67986149D01*
X160337856Y-68063296D01*
X160445105Y-68120622D01*
X160561477Y-68155923D01*
X160682500Y-68167843D01*
X161110106Y-68167843D01*
X161204763Y-68262500D01*
X161110106Y-68357157D01*
X160682500Y-68357157D01*
X160561477Y-68369077D01*
X160445105Y-68404378D01*
X160337856Y-68461704D01*
X160243851Y-68538851D01*
X160166704Y-68632856D01*
X160109378Y-68740105D01*
X160074077Y-68856477D01*
X160062157Y-68977500D01*
X160062157Y-69452500D01*
X160074077Y-69573523D01*
X160109378Y-69689895D01*
X160166704Y-69797144D01*
X160243851Y-69891149D01*
X160337856Y-69968296D01*
X160445105Y-70025622D01*
X160561477Y-70060923D01*
X160682500Y-70072843D01*
X161182500Y-70072843D01*
X161303523Y-70060923D01*
X161419895Y-70025622D01*
X161527144Y-69968296D01*
X161621149Y-69891149D01*
X161698296Y-69797144D01*
X161755622Y-69689895D01*
X161790923Y-69573523D01*
X161802843Y-69452500D01*
X161802843Y-69318093D01*
X161953750Y-69469000D01*
X162853000Y-69469000D01*
X162853000Y-69449000D01*
X163107000Y-69449000D01*
X163107000Y-69469000D01*
X163127000Y-69469000D01*
X163127000Y-69723000D01*
X163107000Y-69723000D01*
X163107000Y-69743000D01*
X162853000Y-69743000D01*
X162853000Y-69723000D01*
X161953750Y-69723000D01*
X161795000Y-69881750D01*
X161792393Y-70106000D01*
X137752846Y-70106000D01*
X137728000Y-70103553D01*
X137703154Y-70106000D01*
X137703146Y-70106000D01*
X137628807Y-70113322D01*
X137533425Y-70142255D01*
X137445521Y-70189241D01*
X137368473Y-70252473D01*
X137352629Y-70271779D01*
X137266408Y-70358000D01*
X131216000Y-70358000D01*
X131216000Y-65402219D01*
X131250506Y-65430537D01*
X131360820Y-65489502D01*
X131480518Y-65525812D01*
X131605000Y-65538072D01*
X131794250Y-65535000D01*
X131953000Y-65376250D01*
X131953000Y-64539500D01*
X132207000Y-64539500D01*
X132207000Y-65376250D01*
X132365750Y-65535000D01*
X132555000Y-65538072D01*
X132679482Y-65525812D01*
X132799180Y-65489502D01*
X132909494Y-65430537D01*
X133006185Y-65351185D01*
X133085537Y-65254494D01*
X133144502Y-65144180D01*
X133180812Y-65024482D01*
X133193072Y-64900000D01*
X133190000Y-64698250D01*
X133031250Y-64539500D01*
X132207000Y-64539500D01*
X131953000Y-64539500D01*
X131933000Y-64539500D01*
X131933000Y-64285500D01*
X131953000Y-64285500D01*
X131953000Y-64265500D01*
X132207000Y-64265500D01*
X132207000Y-64285500D01*
X133031250Y-64285500D01*
X133190000Y-64126750D01*
X133191029Y-64059191D01*
X133354052Y-64219552D01*
X133550023Y-64348174D01*
X133767321Y-64436093D01*
X133794627Y-64436776D01*
X133978000Y-64311392D01*
X133978000Y-62862000D01*
X133958000Y-62862000D01*
X133958000Y-62608000D01*
X133978000Y-62608000D01*
X133978000Y-62588000D01*
X134232000Y-62588000D01*
X134232000Y-62608000D01*
%TA.AperFunction,Conductor*%
D21*
G36*
X134232000Y-62608000D02*
G01*
X134252000Y-62608000D01*
X134252000Y-62862000D01*
X134232000Y-62862000D01*
X134232000Y-64311392D01*
X134415373Y-64436776D01*
X134442679Y-64436093D01*
X134659977Y-64348174D01*
X134855948Y-64219552D01*
X135023060Y-64055169D01*
X135154892Y-63861343D01*
X135173905Y-63816490D01*
X135275395Y-63715000D01*
X135261253Y-63700858D01*
X135440858Y-63521253D01*
X135455000Y-63535395D01*
X135469143Y-63521253D01*
X135599000Y-63651110D01*
X135599000Y-63778890D01*
X135469143Y-63908748D01*
X135455000Y-63894605D01*
X134982069Y-64367536D01*
X134995677Y-64563270D01*
X135169992Y-64636581D01*
X135355260Y-64674475D01*
X135544361Y-64675497D01*
X135730028Y-64639608D01*
X135905126Y-64568187D01*
X135914323Y-64563270D01*
X135927931Y-64367539D01*
X136046869Y-64486477D01*
X136132773Y-64400573D01*
X136235465Y-64421000D01*
X136374535Y-64421000D01*
X136510933Y-64393869D01*
X136639416Y-64340649D01*
X136730000Y-64280123D01*
X136820584Y-64340649D01*
X136949067Y-64393869D01*
X137085465Y-64421000D01*
X137224535Y-64421000D01*
X137360933Y-64393869D01*
X137489416Y-64340649D01*
X137499000Y-64334245D01*
X137499000Y-64636953D01*
X137496553Y-64661800D01*
X137499000Y-64686646D01*
X137499000Y-64686653D01*
X137500583Y-64702723D01*
X137389005Y-64748940D01*
X137261088Y-64834411D01*
X137152305Y-64943194D01*
X137066834Y-65071111D01*
X137007960Y-65213244D01*
X136977947Y-65364131D01*
X136977947Y-65517975D01*
X137007960Y-65668862D01*
X137066834Y-65810995D01*
X137152305Y-65938912D01*
X137261088Y-66047695D01*
X137389005Y-66133166D01*
X137531138Y-66192040D01*
X137682025Y-66222053D01*
X137835869Y-66222053D01*
X137986756Y-66192040D01*
X138128889Y-66133166D01*
X138147377Y-66120813D01*
X140837475Y-68810912D01*
X140852536Y-68829264D01*
X140925778Y-68889372D01*
X141009339Y-68934036D01*
X141072503Y-68953196D01*
X141100007Y-68961540D01*
X141194300Y-68970827D01*
X141217926Y-68968500D01*
X158180764Y-68968500D01*
X158237157Y-69024893D01*
X158237157Y-69452500D01*
X158249077Y-69573523D01*
X158284378Y-69689895D01*
X158341704Y-69797144D01*
X158418851Y-69891149D01*
X158512856Y-69968296D01*
X158620105Y-70025622D01*
X158736477Y-70060923D01*
X158857500Y-70072843D01*
X159357500Y-70072843D01*
X159478523Y-70060923D01*
X159594895Y-70025622D01*
X159702144Y-69968296D01*
X159796149Y-69891149D01*
X159873296Y-69797144D01*
X159930622Y-69689895D01*
X159965923Y-69573523D01*
X159977843Y-69452500D01*
X159977843Y-68977500D01*
X159965923Y-68856477D01*
X159930622Y-68740105D01*
X159873296Y-68632856D01*
X159796149Y-68538851D01*
X159702144Y-68461704D01*
X159594895Y-68404378D01*
X159478523Y-68369077D01*
X159357500Y-68357157D01*
X158929893Y-68357157D01*
X158835236Y-68262500D01*
X158929893Y-68167843D01*
X159357500Y-68167843D01*
X159478523Y-68155923D01*
X159594895Y-68120622D01*
X159702144Y-68063296D01*
X159796149Y-67986149D01*
X159873296Y-67892144D01*
X159930622Y-67784895D01*
X159965923Y-67668523D01*
X159977843Y-67547500D01*
X159977843Y-67072500D01*
X159965923Y-66951477D01*
X159930622Y-66835105D01*
X159873296Y-66727856D01*
X159796149Y-66633851D01*
X159702144Y-66556704D01*
X159604655Y-66504595D01*
X159678000Y-66431250D01*
X159678000Y-65532000D01*
X158778750Y-65532000D01*
X158620000Y-65690750D01*
X158616928Y-65955000D01*
X158629188Y-66079482D01*
X158665498Y-66199180D01*
X158724463Y-66309494D01*
X158803815Y-66406185D01*
X158859832Y-66452157D01*
X158857500Y-66452157D01*
X158736477Y-66464077D01*
X158620105Y-66499378D01*
X158512856Y-66556704D01*
X158418851Y-66633851D01*
X158341704Y-66727856D01*
X158284378Y-66835105D01*
X158249077Y-66951477D01*
X158237157Y-67072500D01*
X158237157Y-67500107D01*
X158180764Y-67556500D01*
X141579936Y-67556500D01*
X140253842Y-66230406D01*
X140321477Y-66250923D01*
X140442500Y-66262843D01*
X140942500Y-66262843D01*
X141063523Y-66250923D01*
X141179895Y-66215622D01*
X141287144Y-66158296D01*
X141381149Y-66081149D01*
X141414951Y-66039961D01*
X141440498Y-66124180D01*
X141499463Y-66234494D01*
X141578815Y-66331185D01*
X141675506Y-66410537D01*
X141785820Y-66469502D01*
X141905518Y-66505812D01*
X142030000Y-66518072D01*
X142231750Y-66515000D01*
X142390500Y-66356250D01*
X142390500Y-65532000D01*
X142644500Y-65532000D01*
X142644500Y-66356250D01*
X142803250Y-66515000D01*
X143005000Y-66518072D01*
X143129482Y-66505812D01*
X143249180Y-66469502D01*
X143359494Y-66410537D01*
X143456185Y-66331185D01*
X143535537Y-66234494D01*
X143594502Y-66124180D01*
X143630812Y-66004482D01*
X143643072Y-65880000D01*
X143640000Y-65690750D01*
X143481250Y-65532000D01*
X142644500Y-65532000D01*
X142390500Y-65532000D01*
X142370500Y-65532000D01*
X142370500Y-65278000D01*
X142390500Y-65278000D01*
X142390500Y-65258000D01*
X142644500Y-65258000D01*
X142644500Y-65278000D01*
X143481250Y-65278000D01*
X143640000Y-65119250D01*
X143641351Y-65035999D01*
X158619032Y-65035999D01*
X158620000Y-65119250D01*
X158778750Y-65278000D01*
X159678000Y-65278000D01*
X159678000Y-65258000D01*
X159932000Y-65258000D01*
X159932000Y-65278000D01*
X159952000Y-65278000D01*
X159952000Y-65532000D01*
X159932000Y-65532000D01*
X159932000Y-66431250D01*
X160090750Y-66590000D01*
X160231166Y-66591632D01*
X160256975Y-66623081D01*
X160243851Y-66633851D01*
X160166704Y-66727856D01*
X160109378Y-66835105D01*
X160074077Y-66951477D01*
X160062157Y-67072500D01*
X160062157Y-67547500D01*
X160074077Y-67668523D01*
X160109378Y-67784895D01*
X160166704Y-67892144D01*
X160243851Y-67986149D01*
X160337856Y-68063296D01*
X160445105Y-68120622D01*
X160561477Y-68155923D01*
X160682500Y-68167843D01*
X161110106Y-68167843D01*
X161204763Y-68262500D01*
X161110106Y-68357157D01*
X160682500Y-68357157D01*
X160561477Y-68369077D01*
X160445105Y-68404378D01*
X160337856Y-68461704D01*
X160243851Y-68538851D01*
X160166704Y-68632856D01*
X160109378Y-68740105D01*
X160074077Y-68856477D01*
X160062157Y-68977500D01*
X160062157Y-69452500D01*
X160074077Y-69573523D01*
X160109378Y-69689895D01*
X160166704Y-69797144D01*
X160243851Y-69891149D01*
X160337856Y-69968296D01*
X160445105Y-70025622D01*
X160561477Y-70060923D01*
X160682500Y-70072843D01*
X161182500Y-70072843D01*
X161303523Y-70060923D01*
X161419895Y-70025622D01*
X161527144Y-69968296D01*
X161621149Y-69891149D01*
X161698296Y-69797144D01*
X161755622Y-69689895D01*
X161790923Y-69573523D01*
X161802843Y-69452500D01*
X161802843Y-69318093D01*
X161953750Y-69469000D01*
X162853000Y-69469000D01*
X162853000Y-69449000D01*
X163107000Y-69449000D01*
X163107000Y-69469000D01*
X163127000Y-69469000D01*
X163127000Y-69723000D01*
X163107000Y-69723000D01*
X163107000Y-69743000D01*
X162853000Y-69743000D01*
X162853000Y-69723000D01*
X161953750Y-69723000D01*
X161795000Y-69881750D01*
X161792393Y-70106000D01*
X137752846Y-70106000D01*
X137728000Y-70103553D01*
X137703154Y-70106000D01*
X137703146Y-70106000D01*
X137628807Y-70113322D01*
X137533425Y-70142255D01*
X137445521Y-70189241D01*
X137368473Y-70252473D01*
X137352629Y-70271779D01*
X137266408Y-70358000D01*
X131216000Y-70358000D01*
X131216000Y-65402219D01*
X131250506Y-65430537D01*
X131360820Y-65489502D01*
X131480518Y-65525812D01*
X131605000Y-65538072D01*
X131794250Y-65535000D01*
X131953000Y-65376250D01*
X131953000Y-64539500D01*
X132207000Y-64539500D01*
X132207000Y-65376250D01*
X132365750Y-65535000D01*
X132555000Y-65538072D01*
X132679482Y-65525812D01*
X132799180Y-65489502D01*
X132909494Y-65430537D01*
X133006185Y-65351185D01*
X133085537Y-65254494D01*
X133144502Y-65144180D01*
X133180812Y-65024482D01*
X133193072Y-64900000D01*
X133190000Y-64698250D01*
X133031250Y-64539500D01*
X132207000Y-64539500D01*
X131953000Y-64539500D01*
X131933000Y-64539500D01*
X131933000Y-64285500D01*
X131953000Y-64285500D01*
X131953000Y-64265500D01*
X132207000Y-64265500D01*
X132207000Y-64285500D01*
X133031250Y-64285500D01*
X133190000Y-64126750D01*
X133191029Y-64059191D01*
X133354052Y-64219552D01*
X133550023Y-64348174D01*
X133767321Y-64436093D01*
X133794627Y-64436776D01*
X133978000Y-64311392D01*
X133978000Y-62862000D01*
X133958000Y-62862000D01*
X133958000Y-62608000D01*
X133978000Y-62608000D01*
X133978000Y-62588000D01*
X134232000Y-62588000D01*
X134232000Y-62608000D01*
G37*
%TD.AperFunction*%
D20*
X173296964Y-64792556D02*
X169781332Y-68308189D01*
X169762025Y-68324034D01*
X169698793Y-68401082D01*
X169678102Y-68439792D01*
X169651806Y-68488987D01*
X169622873Y-68584369D01*
X169613104Y-68683561D01*
X169615552Y-68708417D01*
X169615551Y-69107775D01*
X169610165Y-69113161D01*
X169562554Y-69171176D01*
X169545000Y-69204017D01*
X169527446Y-69171176D01*
X169479835Y-69113161D01*
X169161637Y-68794963D01*
X169103622Y-68747352D01*
X169037434Y-68711973D01*
X169006519Y-68702595D01*
X168997140Y-68671678D01*
X168961761Y-68605490D01*
X168914150Y-68547475D01*
X168595952Y-68229277D01*
X168537937Y-68181666D01*
X168471749Y-68146287D01*
X168440832Y-68136908D01*
X168431454Y-68105993D01*
X168396075Y-68039805D01*
X168348464Y-67981790D01*
X168141190Y-67774516D01*
X168150069Y-67696304D01*
X168139661Y-67571653D01*
X168105136Y-67451429D01*
X168047817Y-67340250D01*
X167983532Y-67260254D01*
X167759025Y-67260254D01*
X166981738Y-68037541D01*
X167016387Y-68072190D01*
X166836782Y-68251795D01*
X166802133Y-68217146D01*
X166024846Y-68994433D01*
X166024846Y-69090000D01*
X165612843Y-69090000D01*
X165612843Y-69046000D01*
X165605487Y-68971311D01*
X165583701Y-68899492D01*
X165548322Y-68833304D01*
X165500711Y-68775289D01*
X165449117Y-68732947D01*
X165535068Y-68646996D01*
X165540142Y-68664665D01*
X165597461Y-68775844D01*
X165661746Y-68855840D01*
X165886253Y-68855840D01*
X166663540Y-68078553D01*
X166628892Y-68043905D01*
X166808497Y-67864300D01*
X166843145Y-67898948D01*
X167620432Y-67121661D01*
X167620432Y-66897154D01*
X167540436Y-66832869D01*
X167429257Y-66775550D01*
X167309033Y-66741025D01*
X167184382Y-66730617D01*
X167106170Y-66739496D01*
X166898895Y-66532221D01*
X166840880Y-66484610D01*
X166774692Y-66449231D01*
X166743776Y-66439853D01*
X166734398Y-66408937D01*
X166699019Y-66342749D01*
X166651408Y-66284734D01*
X166333210Y-65966536D01*
X166275195Y-65918925D01*
X166209007Y-65883546D01*
X166178092Y-65874168D01*
X166168713Y-65843251D01*
X166133334Y-65777063D01*
X166085723Y-65719048D01*
X165767525Y-65400850D01*
X165709510Y-65353239D01*
X165643322Y-65317860D01*
X165612405Y-65308481D01*
X165603027Y-65277566D01*
X165567648Y-65211378D01*
X165520037Y-65153363D01*
X165201839Y-64835165D01*
X165143824Y-64787554D01*
X165110983Y-64770000D01*
X165143824Y-64752446D01*
X165201839Y-64704835D01*
X165520037Y-64386637D01*
X165567648Y-64328622D01*
X165603027Y-64262434D01*
X165612405Y-64231519D01*
X165643322Y-64222140D01*
X165709510Y-64186761D01*
X165767525Y-64139150D01*
X165974800Y-63931875D01*
X166053011Y-63940754D01*
X166177662Y-63930346D01*
X166297886Y-63895821D01*
X166409065Y-63838502D01*
X166489061Y-63774217D01*
X166489061Y-63549710D01*
X165711774Y-62772423D01*
X165677126Y-62807072D01*
X165497521Y-62627467D01*
X165532169Y-62592818D01*
X164754882Y-61815531D01*
X164530375Y-61815531D01*
X164466090Y-61895527D01*
X164408771Y-62006706D01*
X164374246Y-62126930D01*
X164363838Y-62251581D01*
X164372717Y-62329794D01*
X164165443Y-62537068D01*
X164117832Y-62595083D01*
X164082453Y-62661271D01*
X164073075Y-62692186D01*
X164042158Y-62701565D01*
X163975970Y-62736944D01*
X163917955Y-62784555D01*
X163599757Y-63102753D01*
X163552146Y-63160768D01*
X163516767Y-63226956D01*
X163494981Y-63298775D01*
X163487625Y-63373464D01*
X163494981Y-63448153D01*
X163516767Y-63519972D01*
X163552146Y-63586160D01*
X163599757Y-63644175D01*
X164660417Y-64704835D01*
X164718432Y-64752446D01*
X164751273Y-64770000D01*
X164718432Y-64787554D01*
X164660417Y-64835165D01*
X164206277Y-65289305D01*
X164009897Y-65289305D01*
X162437843Y-63717252D01*
X162437843Y-63282748D01*
X163115220Y-62605372D01*
X163134527Y-62589527D01*
X163197759Y-62512479D01*
X163244745Y-62424575D01*
X163259745Y-62375126D01*
X163273678Y-62329194D01*
X163275076Y-62315000D01*
X163281000Y-62254854D01*
X163281000Y-62254847D01*
X163283447Y-62230001D01*
X163281000Y-62205155D01*
X163281000Y-61892843D01*
X163325000Y-61892843D01*
X163399689Y-61885487D01*
X163471508Y-61863701D01*
X163537696Y-61828322D01*
X163595711Y-61780711D01*
X163643322Y-61722696D01*
X163678701Y-61656508D01*
X163700487Y-61584689D01*
X163707843Y-61510000D01*
X163707843Y-61466000D01*
X164893475Y-61466000D01*
X164893475Y-61676938D01*
X165670762Y-62454225D01*
X165705411Y-62419577D01*
X165885016Y-62599182D01*
X165850367Y-62633830D01*
X166627654Y-63411117D01*
X166852161Y-63411117D01*
X166916446Y-63331121D01*
X166973765Y-63219942D01*
X167008290Y-63099718D01*
X167018698Y-62975067D01*
X167009819Y-62896855D01*
X167217093Y-62689581D01*
X167264704Y-62631566D01*
X167300083Y-62565378D01*
X167309461Y-62534461D01*
X167340378Y-62525083D01*
X167406566Y-62489704D01*
X167464581Y-62442093D01*
X167782779Y-62123895D01*
X167830390Y-62065880D01*
X167865769Y-61999692D01*
X167875147Y-61968776D01*
X167906063Y-61959398D01*
X167972251Y-61924019D01*
X168030266Y-61876408D01*
X168348464Y-61558210D01*
X168396075Y-61500195D01*
X168431454Y-61434007D01*
X168440832Y-61403092D01*
X168471749Y-61393713D01*
X168537937Y-61358334D01*
X168595952Y-61310723D01*
X168914150Y-60992525D01*
X168961761Y-60934510D01*
X168997140Y-60868322D01*
X169006519Y-60837405D01*
X169037434Y-60828027D01*
X169103622Y-60792648D01*
X169161637Y-60745037D01*
X169205541Y-60701133D01*
X173296964Y-64792556D01*
%TA.AperFunction,Conductor*%
D21*
G36*
X173296964Y-64792556D02*
G01*
X169781332Y-68308189D01*
X169762025Y-68324034D01*
X169698793Y-68401082D01*
X169678102Y-68439792D01*
X169651806Y-68488987D01*
X169622873Y-68584369D01*
X169613104Y-68683561D01*
X169615552Y-68708417D01*
X169615551Y-69107775D01*
X169610165Y-69113161D01*
X169562554Y-69171176D01*
X169545000Y-69204017D01*
X169527446Y-69171176D01*
X169479835Y-69113161D01*
X169161637Y-68794963D01*
X169103622Y-68747352D01*
X169037434Y-68711973D01*
X169006519Y-68702595D01*
X168997140Y-68671678D01*
X168961761Y-68605490D01*
X168914150Y-68547475D01*
X168595952Y-68229277D01*
X168537937Y-68181666D01*
X168471749Y-68146287D01*
X168440832Y-68136908D01*
X168431454Y-68105993D01*
X168396075Y-68039805D01*
X168348464Y-67981790D01*
X168141190Y-67774516D01*
X168150069Y-67696304D01*
X168139661Y-67571653D01*
X168105136Y-67451429D01*
X168047817Y-67340250D01*
X167983532Y-67260254D01*
X167759025Y-67260254D01*
X166981738Y-68037541D01*
X167016387Y-68072190D01*
X166836782Y-68251795D01*
X166802133Y-68217146D01*
X166024846Y-68994433D01*
X166024846Y-69090000D01*
X165612843Y-69090000D01*
X165612843Y-69046000D01*
X165605487Y-68971311D01*
X165583701Y-68899492D01*
X165548322Y-68833304D01*
X165500711Y-68775289D01*
X165449117Y-68732947D01*
X165535068Y-68646996D01*
X165540142Y-68664665D01*
X165597461Y-68775844D01*
X165661746Y-68855840D01*
X165886253Y-68855840D01*
X166663540Y-68078553D01*
X166628892Y-68043905D01*
X166808497Y-67864300D01*
X166843145Y-67898948D01*
X167620432Y-67121661D01*
X167620432Y-66897154D01*
X167540436Y-66832869D01*
X167429257Y-66775550D01*
X167309033Y-66741025D01*
X167184382Y-66730617D01*
X167106170Y-66739496D01*
X166898895Y-66532221D01*
X166840880Y-66484610D01*
X166774692Y-66449231D01*
X166743776Y-66439853D01*
X166734398Y-66408937D01*
X166699019Y-66342749D01*
X166651408Y-66284734D01*
X166333210Y-65966536D01*
X166275195Y-65918925D01*
X166209007Y-65883546D01*
X166178092Y-65874168D01*
X166168713Y-65843251D01*
X166133334Y-65777063D01*
X166085723Y-65719048D01*
X165767525Y-65400850D01*
X165709510Y-65353239D01*
X165643322Y-65317860D01*
X165612405Y-65308481D01*
X165603027Y-65277566D01*
X165567648Y-65211378D01*
X165520037Y-65153363D01*
X165201839Y-64835165D01*
X165143824Y-64787554D01*
X165110983Y-64770000D01*
X165143824Y-64752446D01*
X165201839Y-64704835D01*
X165520037Y-64386637D01*
X165567648Y-64328622D01*
X165603027Y-64262434D01*
X165612405Y-64231519D01*
X165643322Y-64222140D01*
X165709510Y-64186761D01*
X165767525Y-64139150D01*
X165974800Y-63931875D01*
X166053011Y-63940754D01*
X166177662Y-63930346D01*
X166297886Y-63895821D01*
X166409065Y-63838502D01*
X166489061Y-63774217D01*
X166489061Y-63549710D01*
X165711774Y-62772423D01*
X165677126Y-62807072D01*
X165497521Y-62627467D01*
X165532169Y-62592818D01*
X164754882Y-61815531D01*
X164530375Y-61815531D01*
X164466090Y-61895527D01*
X164408771Y-62006706D01*
X164374246Y-62126930D01*
X164363838Y-62251581D01*
X164372717Y-62329794D01*
X164165443Y-62537068D01*
X164117832Y-62595083D01*
X164082453Y-62661271D01*
X164073075Y-62692186D01*
X164042158Y-62701565D01*
X163975970Y-62736944D01*
X163917955Y-62784555D01*
X163599757Y-63102753D01*
X163552146Y-63160768D01*
X163516767Y-63226956D01*
X163494981Y-63298775D01*
X163487625Y-63373464D01*
X163494981Y-63448153D01*
X163516767Y-63519972D01*
X163552146Y-63586160D01*
X163599757Y-63644175D01*
X164660417Y-64704835D01*
X164718432Y-64752446D01*
X164751273Y-64770000D01*
X164718432Y-64787554D01*
X164660417Y-64835165D01*
X164206277Y-65289305D01*
X164009897Y-65289305D01*
X162437843Y-63717252D01*
X162437843Y-63282748D01*
X163115220Y-62605372D01*
X163134527Y-62589527D01*
X163197759Y-62512479D01*
X163244745Y-62424575D01*
X163259745Y-62375126D01*
X163273678Y-62329194D01*
X163275076Y-62315000D01*
X163281000Y-62254854D01*
X163281000Y-62254847D01*
X163283447Y-62230001D01*
X163281000Y-62205155D01*
X163281000Y-61892843D01*
X163325000Y-61892843D01*
X163399689Y-61885487D01*
X163471508Y-61863701D01*
X163537696Y-61828322D01*
X163595711Y-61780711D01*
X163643322Y-61722696D01*
X163678701Y-61656508D01*
X163700487Y-61584689D01*
X163707843Y-61510000D01*
X163707843Y-61466000D01*
X164893475Y-61466000D01*
X164893475Y-61676938D01*
X165670762Y-62454225D01*
X165705411Y-62419577D01*
X165885016Y-62599182D01*
X165850367Y-62633830D01*
X166627654Y-63411117D01*
X166852161Y-63411117D01*
X166916446Y-63331121D01*
X166973765Y-63219942D01*
X167008290Y-63099718D01*
X167018698Y-62975067D01*
X167009819Y-62896855D01*
X167217093Y-62689581D01*
X167264704Y-62631566D01*
X167300083Y-62565378D01*
X167309461Y-62534461D01*
X167340378Y-62525083D01*
X167406566Y-62489704D01*
X167464581Y-62442093D01*
X167782779Y-62123895D01*
X167830390Y-62065880D01*
X167865769Y-61999692D01*
X167875147Y-61968776D01*
X167906063Y-61959398D01*
X167972251Y-61924019D01*
X168030266Y-61876408D01*
X168348464Y-61558210D01*
X168396075Y-61500195D01*
X168431454Y-61434007D01*
X168440832Y-61403092D01*
X168471749Y-61393713D01*
X168537937Y-61358334D01*
X168595952Y-61310723D01*
X168914150Y-60992525D01*
X168961761Y-60934510D01*
X168997140Y-60868322D01*
X169006519Y-60837405D01*
X169037434Y-60828027D01*
X169103622Y-60792648D01*
X169161637Y-60745037D01*
X169205541Y-60701133D01*
X173296964Y-64792556D01*
G37*
%TD.AperFunction*%
D20*
X141598748Y-63700858D02*
X141584605Y-63715000D01*
X141598748Y-63729143D01*
X141419143Y-63908748D01*
X141405000Y-63894605D01*
X141390858Y-63908748D01*
X141261000Y-63778890D01*
X141261000Y-63651110D01*
X141390858Y-63521253D01*
X141405000Y-63535395D01*
X141419143Y-63521253D01*
X141598748Y-63700858D01*
%TA.AperFunction,Conductor*%
D21*
G36*
X141598748Y-63700858D02*
G01*
X141584605Y-63715000D01*
X141598748Y-63729143D01*
X141419143Y-63908748D01*
X141405000Y-63894605D01*
X141390858Y-63908748D01*
X141261000Y-63778890D01*
X141261000Y-63651110D01*
X141390858Y-63521253D01*
X141405000Y-63535395D01*
X141419143Y-63521253D01*
X141598748Y-63700858D01*
G37*
%TD.AperFunction*%
D20*
X135599000Y-62301110D02*
X135599000Y-62428890D01*
X135469143Y-62558748D01*
X135455000Y-62544605D01*
X135440858Y-62558748D01*
X135294000Y-62411890D01*
X135294000Y-62318110D01*
X135440858Y-62171253D01*
X135455000Y-62185395D01*
X135469143Y-62171253D01*
X135599000Y-62301110D01*
%TA.AperFunction,Conductor*%
D21*
G36*
X135599000Y-62301110D02*
G01*
X135599000Y-62428890D01*
X135469143Y-62558748D01*
X135455000Y-62544605D01*
X135440858Y-62558748D01*
X135294000Y-62411890D01*
X135294000Y-62318110D01*
X135440858Y-62171253D01*
X135455000Y-62185395D01*
X135469143Y-62171253D01*
X135599000Y-62301110D01*
G37*
%TD.AperFunction*%
D20*
X141566000Y-62318110D02*
X141566000Y-62411890D01*
X141419143Y-62558748D01*
X141405000Y-62544605D01*
X141390858Y-62558748D01*
X141261000Y-62428890D01*
X141261000Y-62301110D01*
X141390858Y-62171253D01*
X141405000Y-62185395D01*
X141419143Y-62171253D01*
X141566000Y-62318110D01*
%TA.AperFunction,Conductor*%
D21*
G36*
X141566000Y-62318110D02*
G01*
X141566000Y-62411890D01*
X141419143Y-62558748D01*
X141405000Y-62544605D01*
X141390858Y-62558748D01*
X141261000Y-62428890D01*
X141261000Y-62301110D01*
X141390858Y-62171253D01*
X141405000Y-62185395D01*
X141419143Y-62171253D01*
X141566000Y-62318110D01*
G37*
%TD.AperFunction*%
%TD*%
M02*
